<?xml version="1.0" encoding="utf-8"?>
<!-- Generator: Adobe Illustrator 21.1.0, SVG Export Plug-In . SVG Version: 6.00 Build 0)  -->
<svg version="1.1" id="Layer_1" xmlns="http://www.w3.org/2000/svg" xmlns:xlink="http://www.w3.org/1999/xlink" x="0px" y="0px"
	 viewBox="0 0 612 792" style="enable-background:new 0 0 612 792;" xml:space="preserve">
<style type="text/css">
	.st0{fill:#F26522;}
	.st1{fill:#FFFFFF;}
</style>
<rect x="146" y="110" class="st0" width="320" height="571"/>
<g>
	<g>
		<path class="st1" d="M303.9,298.6l-24.7,24.7l24.7,24.7l24.7-24.7L303.9,298.6z M303,332h-10.5v-17H303v1.9h-8.2v5.7h6.6v1.8h-6.6
			v5.8h8.2L303,332z M315.7,324.1c-0.5,0.5-1.2,0.8-2,1.1c-0.8,0.3-1.7,0.4-2.7,0.4h-2.7v6.4H306v-17h5c1.1,0,2,0.1,2.8,0.4
			c0.8,0.3,1.5,0.6,2,1.1c0.5,0.5,0.9,1,1.2,1.7c0.3,0.7,0.4,1.4,0.4,2.2c0,0.8-0.1,1.5-0.4,2.2
			C316.7,323.1,316.3,323.6,315.7,324.1z"/>
		<path class="st1" d="M311,316.8h-2.7v7h2.7c0.7,0,1.2-0.1,1.7-0.3c0.5-0.2,0.9-0.4,1.3-0.7c0.3-0.3,0.6-0.7,0.8-1.1
			s0.3-0.9,0.3-1.4c0-1.1-0.3-1.9-1-2.5C313.4,317.1,312.4,316.8,311,316.8z"/>
	</g>
	<g>
		<path class="st1" d="M238.7,371.1l0,1.7h-9.7v-15.8h9.7v1.7h-7.6v5.2h6.1v1.7h-6.1v5.4H238.7z"/>
		<path class="st1" d="M240.6,372.9v-11.1h1.2c0.3,0,0.5,0.1,0.5,0.4l0.1,1.1c0.4-0.5,0.9-0.9,1.4-1.2s1.1-0.5,1.8-0.5
			c0.7,0,1.4,0.2,1.8,0.6s0.8,1,1,1.7c0.2-0.4,0.4-0.8,0.6-1s0.5-0.5,0.9-0.7c0.3-0.2,0.7-0.3,1-0.4c0.4-0.1,0.7-0.1,1.1-0.1
			c0.6,0,1.1,0.1,1.6,0.3c0.5,0.2,0.8,0.5,1.2,0.8c0.3,0.4,0.6,0.8,0.7,1.3c0.2,0.5,0.3,1.1,0.3,1.8v7.1h-2v-7.1
			c0-0.9-0.2-1.5-0.6-2s-0.9-0.7-1.6-0.7c-0.3,0-0.6,0.1-0.9,0.2c-0.3,0.1-0.5,0.3-0.8,0.5c-0.2,0.2-0.4,0.5-0.5,0.8
			c-0.1,0.3-0.2,0.7-0.2,1.2v7.1h-2v-7.1c0-0.9-0.2-1.6-0.5-2s-0.9-0.7-1.6-0.7c-0.5,0-0.9,0.1-1.3,0.4c-0.4,0.3-0.8,0.6-1.1,1.1
			v8.3H240.6z"/>
		<path class="st1" d="M260.2,363.4c0.5-0.6,1-1,1.6-1.4c0.6-0.4,1.3-0.5,2.1-0.5c0.6,0,1.2,0.1,1.7,0.4c0.5,0.2,1,0.6,1.3,1.1
			c0.4,0.5,0.6,1.1,0.8,1.8c0.2,0.7,0.3,1.5,0.3,2.5c0,0.8-0.1,1.6-0.3,2.3c-0.2,0.7-0.5,1.3-1,1.8c-0.4,0.5-0.9,0.9-1.5,1.2
			s-1.3,0.4-2,0.4c-0.7,0-1.3-0.1-1.8-0.3s-0.9-0.6-1.3-1v4.9h-2v-14.9h1.2c0.3,0,0.5,0.1,0.5,0.4L260.2,363.4z M260.3,370.2
			c0.4,0.5,0.8,0.8,1.2,1c0.4,0.2,0.9,0.3,1.4,0.3c1,0,1.8-0.4,2.4-1.1s0.8-1.8,0.8-3.2c0-0.7-0.1-1.3-0.2-1.9
			c-0.1-0.5-0.3-0.9-0.6-1.3c-0.2-0.3-0.5-0.6-0.9-0.7c-0.4-0.2-0.8-0.2-1.2-0.2c-0.6,0-1.2,0.1-1.7,0.4c-0.5,0.3-0.9,0.7-1.3,1.2
			V370.2z"/>
		<path class="st1" d="M272.3,356.7v16.2h-2v-16.2H272.3z"/>
		<path class="st1" d="M279.9,361.5c0.8,0,1.5,0.1,2.2,0.4c0.7,0.3,1.2,0.7,1.7,1.2s0.8,1.1,1.1,1.8c0.2,0.7,0.4,1.5,0.4,2.4
			c0,0.9-0.1,1.7-0.4,2.4c-0.2,0.7-0.6,1.3-1.1,1.8s-1,0.9-1.7,1.1c-0.7,0.3-1.4,0.4-2.2,0.4c-0.8,0-1.6-0.1-2.2-0.4
			c-0.7-0.3-1.2-0.7-1.7-1.1s-0.8-1.1-1.1-1.8c-0.2-0.7-0.4-1.5-0.4-2.4c0-0.9,0.1-1.7,0.4-2.4c0.2-0.7,0.6-1.3,1.1-1.8
			s1-0.9,1.7-1.2C278.3,361.7,279.1,361.5,279.9,361.5z M279.9,371.5c1.1,0,1.9-0.4,2.5-1.1s0.8-1.8,0.8-3.1c0-1.3-0.3-2.4-0.8-3.1
			s-1.4-1.1-2.5-1.1c-0.6,0-1,0.1-1.5,0.3c-0.4,0.2-0.8,0.5-1,0.8c-0.3,0.4-0.5,0.8-0.6,1.3c-0.1,0.5-0.2,1.1-0.2,1.8
			c0,1.3,0.3,2.3,0.8,3.1S278.8,371.5,279.9,371.5z"/>
		<path class="st1" d="M296.6,361.7l-6.2,14.4c-0.1,0.1-0.1,0.3-0.2,0.4c-0.1,0.1-0.3,0.1-0.5,0.1h-1.5l2-4.4l-4.6-10.5h1.7
			c0.2,0,0.3,0,0.4,0.1c0.1,0.1,0.2,0.2,0.2,0.3l3,7c0.1,0.3,0.2,0.6,0.3,1c0.1-0.3,0.2-0.7,0.3-1l2.9-7c0-0.1,0.1-0.2,0.2-0.3
			c0.1-0.1,0.2-0.1,0.4-0.1H296.6z"/>
		<path class="st1" d="M306.7,371.3c-0.2,0.3-0.5,0.5-0.9,0.8c-0.3,0.2-0.7,0.4-1.1,0.5c-0.4,0.1-0.8,0.2-1.2,0.3
			c-0.4,0.1-0.8,0.1-1.2,0.1c-0.8,0-1.5-0.1-2.1-0.4s-1.2-0.6-1.7-1.1s-0.8-1.1-1.1-1.9s-0.4-1.6-0.4-2.6c0-0.8,0.1-1.5,0.4-2.2
			c0.2-0.7,0.6-1.3,1-1.8s1-0.9,1.6-1.2c0.6-0.3,1.4-0.4,2.2-0.4c0.7,0,1.3,0.1,1.9,0.3c0.6,0.2,1.1,0.5,1.5,1
			c0.4,0.4,0.7,0.9,1,1.6c0.2,0.6,0.4,1.3,0.4,2.1c0,0.3,0,0.5-0.1,0.6c-0.1,0.1-0.2,0.2-0.4,0.2H299c0,0.7,0.1,1.3,0.3,1.8
			c0.2,0.5,0.4,1,0.7,1.3c0.3,0.3,0.7,0.6,1.1,0.8s0.9,0.3,1.4,0.3c0.5,0,0.9-0.1,1.3-0.2c0.4-0.1,0.7-0.2,0.9-0.4
			c0.3-0.1,0.5-0.3,0.6-0.4c0.2-0.1,0.3-0.2,0.4-0.2c0.2,0,0.3,0.1,0.4,0.2L306.7,371.3z M305.1,366.1c0-0.5-0.1-0.9-0.2-1.2
			c-0.1-0.4-0.3-0.7-0.6-1c-0.2-0.3-0.5-0.5-0.9-0.6s-0.8-0.2-1.2-0.2c-0.9,0-1.7,0.3-2.2,0.8c-0.5,0.5-0.9,1.3-1,2.3H305.1z"/>
		<path class="st1" d="M318,371.3c-0.2,0.3-0.5,0.5-0.9,0.8c-0.3,0.2-0.7,0.4-1.1,0.5c-0.4,0.1-0.8,0.2-1.2,0.3
			c-0.4,0.1-0.8,0.1-1.2,0.1c-0.8,0-1.5-0.1-2.1-0.4s-1.2-0.6-1.7-1.1c-0.5-0.5-0.8-1.1-1.1-1.9c-0.3-0.7-0.4-1.6-0.4-2.6
			c0-0.8,0.1-1.5,0.4-2.2c0.2-0.7,0.6-1.3,1-1.8s1-0.9,1.6-1.2c0.6-0.3,1.4-0.4,2.2-0.4c0.7,0,1.3,0.1,1.9,0.3s1.1,0.5,1.5,1
			c0.4,0.4,0.7,0.9,1,1.6c0.2,0.6,0.4,1.3,0.4,2.1c0,0.3,0,0.5-0.1,0.6c-0.1,0.1-0.2,0.2-0.4,0.2h-7.4c0,0.7,0.1,1.3,0.3,1.8
			c0.2,0.5,0.4,1,0.7,1.3c0.3,0.3,0.7,0.6,1.1,0.8s0.9,0.3,1.4,0.3c0.5,0,0.9-0.1,1.3-0.2c0.4-0.1,0.7-0.2,0.9-0.4
			c0.3-0.1,0.5-0.3,0.6-0.4s0.3-0.2,0.4-0.2c0.2,0,0.3,0.1,0.4,0.2L318,371.3z M316.4,366.1c0-0.5-0.1-0.9-0.2-1.2
			c-0.1-0.4-0.3-0.7-0.6-1c-0.2-0.3-0.5-0.5-0.9-0.6c-0.4-0.2-0.8-0.2-1.2-0.2c-0.9,0-1.7,0.3-2.2,0.8c-0.5,0.5-0.9,1.3-1,2.3H316.4
			z"/>
		<path class="st1" d="M330.9,357c1.1,0,2,0.1,2.8,0.4c0.8,0.2,1.4,0.6,1.9,1s0.9,1,1.1,1.6c0.2,0.6,0.4,1.3,0.4,2
			c0,0.8-0.1,1.5-0.4,2.1c-0.3,0.6-0.6,1.2-1.2,1.7s-1.2,0.8-1.9,1.1c-0.8,0.3-1.7,0.4-2.7,0.4h-2.2v5.6h-3V357H330.9z M330.9,365
			c0.5,0,1-0.1,1.4-0.2c0.4-0.1,0.7-0.3,1-0.6c0.3-0.3,0.5-0.6,0.6-0.9c0.1-0.4,0.2-0.8,0.2-1.2c0-0.4-0.1-0.8-0.2-1.2
			c-0.1-0.3-0.3-0.6-0.6-0.9c-0.3-0.2-0.6-0.4-1-0.6s-0.9-0.2-1.4-0.2h-2.2v5.7H330.9z"/>
		<path class="st1" d="M343.1,361.4c0.8,0,1.6,0.1,2.3,0.4c0.7,0.3,1.3,0.7,1.8,1.2c0.5,0.5,0.9,1.1,1.1,1.8
			c0.3,0.7,0.4,1.5,0.4,2.4c0,0.9-0.1,1.7-0.4,2.4c-0.3,0.7-0.6,1.3-1.1,1.8c-0.5,0.5-1.1,0.9-1.8,1.2c-0.7,0.3-1.4,0.4-2.3,0.4
			c-0.8,0-1.6-0.1-2.3-0.4c-0.7-0.3-1.3-0.7-1.8-1.2c-0.5-0.5-0.9-1.1-1.1-1.8c-0.3-0.7-0.4-1.5-0.4-2.4c0-0.9,0.1-1.7,0.4-2.4
			c0.3-0.7,0.6-1.3,1.1-1.8s1.1-0.9,1.8-1.2C341.5,361.5,342.3,361.4,343.1,361.4z M343.1,370.9c0.9,0,1.6-0.3,2.1-0.9
			c0.5-0.6,0.7-1.6,0.7-2.8s-0.2-2.1-0.7-2.8c-0.5-0.6-1.1-1-2.1-1c-1,0-1.7,0.3-2.1,1c-0.5,0.6-0.7,1.6-0.7,2.8s0.2,2.1,0.7,2.8
			C341.4,370.6,342.2,370.9,343.1,370.9z"/>
		<path class="st1" d="M353,363.5c0.4-0.7,0.8-1.2,1.3-1.6c0.5-0.4,1.1-0.6,1.7-0.6c0.5,0,0.9,0.1,1.3,0.3l-0.2,2
			c0,0.1-0.1,0.2-0.2,0.3c-0.1,0.1-0.2,0.1-0.3,0.1c-0.1,0-0.3,0-0.5-0.1c-0.2,0-0.4-0.1-0.6-0.1c-0.3,0-0.6,0-0.8,0.1
			c-0.2,0.1-0.4,0.2-0.6,0.4s-0.4,0.4-0.5,0.6s-0.3,0.5-0.4,0.8v7h-2.7v-11.3h1.6c0.3,0,0.5,0,0.6,0.1c0.1,0.1,0.2,0.3,0.2,0.5
			L353,363.5z"/>
		<path class="st1" d="M362.1,373c-1,0-1.7-0.3-2.3-0.8c-0.5-0.6-0.8-1.3-0.8-2.3v-6.3h-1.2c-0.1,0-0.3,0-0.4-0.1
			c-0.1-0.1-0.2-0.2-0.2-0.4V362l1.8-0.3l0.6-3.1c0-0.1,0.1-0.3,0.2-0.3c0.1-0.1,0.2-0.1,0.4-0.1h1.4v3.6h3v1.9h-3v6.1
			c0,0.4,0.1,0.6,0.3,0.8c0.2,0.2,0.4,0.3,0.7,0.3c0.2,0,0.3,0,0.4-0.1c0.1,0,0.2-0.1,0.3-0.1c0.1,0,0.2-0.1,0.2-0.1
			c0.1,0,0.1-0.1,0.2-0.1c0.1,0,0.1,0,0.2,0.1c0.1,0,0.1,0.1,0.2,0.2l0.8,1.3c-0.4,0.3-0.9,0.6-1.4,0.7
			C363.1,373,362.6,373,362.1,373z"/>
		<path class="st1" d="M365.9,363.1c1.3-1.2,2.9-1.8,4.7-1.8c0.7,0,1.3,0.1,1.8,0.3c0.5,0.2,1,0.5,1.3,0.9c0.4,0.4,0.6,0.8,0.8,1.4
			c0.2,0.5,0.3,1.1,0.3,1.8v7.1h-1.2c-0.3,0-0.5,0-0.6-0.1c-0.1-0.1-0.3-0.2-0.3-0.5l-0.2-0.8c-0.3,0.3-0.6,0.5-0.8,0.7
			c-0.3,0.2-0.6,0.4-0.8,0.5s-0.6,0.2-0.9,0.3c-0.3,0.1-0.7,0.1-1.1,0.1c-0.5,0-0.9-0.1-1.3-0.2c-0.4-0.1-0.8-0.3-1-0.6
			c-0.3-0.3-0.5-0.6-0.7-1s-0.2-0.8-0.2-1.3c0-0.3,0-0.6,0.1-0.9s0.3-0.6,0.5-0.8c0.2-0.3,0.5-0.5,0.8-0.7c0.3-0.2,0.8-0.4,1.3-0.6
			c0.5-0.2,1.1-0.3,1.8-0.4c0.7-0.1,1.4-0.2,2.3-0.2v-0.7c0-0.8-0.2-1.3-0.5-1.7c-0.3-0.4-0.8-0.5-1.4-0.5c-0.4,0-0.8,0.1-1.1,0.2
			c-0.3,0.1-0.5,0.2-0.8,0.3c-0.2,0.1-0.4,0.2-0.6,0.3s-0.4,0.2-0.6,0.2c-0.2,0-0.4,0-0.5-0.1c-0.1-0.1-0.2-0.2-0.3-0.3L365.9,363.1
			z M372.1,368c-0.8,0-1.4,0.1-2,0.2c-0.5,0.1-1,0.2-1.3,0.4c-0.3,0.2-0.6,0.3-0.7,0.5c-0.1,0.2-0.2,0.4-0.2,0.7
			c0,0.5,0.1,0.8,0.4,1c0.3,0.2,0.7,0.3,1.1,0.3c0.6,0,1-0.1,1.4-0.3c0.4-0.2,0.8-0.5,1.2-0.9V368z"/>
		<path class="st1" d="M379.7,356.5v16.3H377v-16.3H379.7z"/>
	</g>
</g>
<g>
	<path class="st1" d="M278.5,414.5c0.5-0.1,1.3-0.2,2.2-0.2c1.1,0,1.9,0.3,2.5,0.7c0.5,0.4,0.8,1.1,0.8,1.8c0,0.8-0.2,1.4-0.7,1.9
		c-0.6,0.6-1.6,1-2.7,1c-0.3,0-0.7,0-0.9-0.1v3.5h-1.1V414.5z M279.6,418.7c0.2,0.1,0.6,0.1,0.9,0.1c1.4,0,2.2-0.7,2.2-1.9
		c0-1.2-0.8-1.7-2.1-1.7c-0.5,0-0.9,0-1.1,0.1V418.7z"/>
	<path class="st1" d="M290.7,419.9c0,2.3-1.6,3.3-3.1,3.3c-1.7,0-3-1.2-3-3.2c0-2.1,1.4-3.3,3.1-3.3
		C289.5,416.7,290.7,418,290.7,419.9z M285.7,420c0,1.4,0.8,2.4,1.9,2.4c1.1,0,1.9-1,1.9-2.4c0-1.1-0.5-2.4-1.9-2.4
		C286.3,417.5,285.7,418.8,285.7,420z"/>
	<path class="st1" d="M292.5,416.8l0.8,3.2c0.2,0.7,0.4,1.4,0.5,2h0c0.1-0.6,0.4-1.3,0.6-2l1-3.2h1l1,3.1c0.2,0.8,0.4,1.4,0.6,2.1h0
		c0.1-0.6,0.3-1.3,0.5-2l0.9-3.2h1.1l-2,6.3h-1l-1-3c-0.2-0.7-0.4-1.3-0.6-2.1h0c-0.2,0.8-0.4,1.4-0.6,2.1l-1,3h-1l-1.9-6.3H292.5z"
		/>
	<path class="st1" d="M302.2,420.2c0,1.5,1,2.2,2.2,2.2c0.8,0,1.3-0.1,1.7-0.3l0.2,0.8c-0.4,0.2-1.1,0.4-2.1,0.4
		c-1.9,0-3.1-1.3-3.1-3.2c0-1.9,1.1-3.4,3-3.4c2.1,0,2.6,1.8,2.6,3c0,0.2,0,0.4,0,0.5H302.2z M305.5,419.4c0-0.7-0.3-1.9-1.6-1.9
		c-1.2,0-1.7,1.1-1.8,1.9H305.5z"/>
	<path class="st1" d="M308,418.8c0-0.7,0-1.4-0.1-2h1l0,1.2h0.1c0.3-0.8,1-1.4,1.7-1.4c0.1,0,0.2,0,0.3,0v1.1c-0.1,0-0.2,0-0.4,0
		c-0.8,0-1.4,0.6-1.5,1.5c0,0.2-0.1,0.3-0.1,0.5v3.4H308V418.8z"/>
	<path class="st1" d="M312.8,420.2c0,1.5,1,2.2,2.2,2.2c0.8,0,1.3-0.1,1.7-0.3l0.2,0.8c-0.4,0.2-1.1,0.4-2.1,0.4
		c-1.9,0-3.1-1.3-3.1-3.2c0-1.9,1.1-3.4,3-3.4c2.1,0,2.6,1.8,2.6,3c0,0.2,0,0.4,0,0.5H312.8z M316.1,419.4c0-0.7-0.3-1.9-1.6-1.9
		c-1.2,0-1.7,1.1-1.8,1.9H316.1z"/>
	<path class="st1" d="M324.1,413.9v7.6c0,0.6,0,1.2,0.1,1.6h-1l-0.1-1.1h0c-0.4,0.7-1.1,1.2-2.1,1.2c-1.5,0-2.7-1.3-2.7-3.2
		c0-2.1,1.3-3.4,2.8-3.4c1,0,1.6,0.5,1.9,1h0v-3.8H324.1z M323,419.4c0-0.1,0-0.3-0.1-0.5c-0.2-0.7-0.8-1.3-1.7-1.3
		c-1.2,0-1.9,1-1.9,2.4c0,1.3,0.6,2.3,1.9,2.3c0.8,0,1.5-0.5,1.7-1.4c0-0.2,0.1-0.3,0.1-0.5V419.4z"/>
	<path class="st1" d="M328.7,423.1c0-0.4,0.1-1.1,0.1-1.6v-7.6h1.1v4h0c0.4-0.7,1.1-1.2,2.1-1.2c1.6,0,2.7,1.3,2.7,3.2
		c0,2.3-1.4,3.4-2.8,3.4c-0.9,0-1.6-0.4-2.1-1.2h0l-0.1,1H328.7z M329.9,420.6c0,0.1,0,0.3,0.1,0.4c0.2,0.8,0.9,1.3,1.7,1.3
		c1.2,0,1.9-1,1.9-2.4c0-1.3-0.6-2.3-1.9-2.3c-0.8,0-1.5,0.5-1.7,1.4c0,0.1-0.1,0.3-0.1,0.5V420.6z"/>
	<path class="st1" d="M336.5,416.8l1.4,3.7c0.1,0.4,0.3,0.9,0.4,1.3h0c0.1-0.4,0.2-0.9,0.4-1.3l1.2-3.7h1.2l-1.7,4.5
		c-0.8,2.2-1.4,3.3-2.2,3.9c-0.6,0.5-1.1,0.7-1.4,0.7l-0.3-1c0.3-0.1,0.7-0.3,1-0.6c0.3-0.2,0.7-0.7,1-1.3c0.1-0.1,0.1-0.2,0.1-0.3
		c0-0.1,0-0.2-0.1-0.3l-2.3-5.8H336.5z"/>
</g>
<g>
	<path class="st1" d="M276.5,444.4v4.3H275v-11.5h3.3c0.7,0,1.3,0.1,1.8,0.3c0.5,0.2,1,0.4,1.3,0.7c0.3,0.3,0.6,0.7,0.8,1.1
		c0.2,0.4,0.3,0.9,0.3,1.5c0,0.5-0.1,1-0.3,1.5c-0.2,0.4-0.4,0.8-0.8,1.1c-0.4,0.3-0.8,0.6-1.3,0.7c-0.5,0.2-1.1,0.3-1.8,0.3H276.5z
		 M276.5,443.2h1.8c0.4,0,0.8-0.1,1.1-0.2c0.3-0.1,0.6-0.3,0.8-0.5s0.4-0.5,0.5-0.8c0.1-0.3,0.2-0.6,0.2-1c0-0.7-0.2-1.3-0.7-1.7
		c-0.4-0.4-1.1-0.6-2-0.6h-1.8V443.2z"/>
	<path class="st1" d="M289.3,448.7h-0.6c-0.1,0-0.2,0-0.3-0.1c-0.1,0-0.1-0.1-0.2-0.3l-0.2-0.8c-0.2,0.2-0.4,0.4-0.6,0.5
		c-0.2,0.2-0.4,0.3-0.6,0.4c-0.2,0.1-0.5,0.2-0.7,0.2c-0.2,0.1-0.5,0.1-0.8,0.1c-0.3,0-0.6,0-0.9-0.1c-0.3-0.1-0.5-0.2-0.7-0.4
		c-0.2-0.2-0.4-0.4-0.5-0.7c-0.1-0.3-0.2-0.6-0.2-1c0-0.3,0.1-0.6,0.3-0.9c0.2-0.3,0.4-0.6,0.8-0.8c0.4-0.2,0.9-0.4,1.5-0.6
		c0.6-0.1,1.4-0.2,2.3-0.2v-0.6c0-0.6-0.1-1.1-0.4-1.4c-0.3-0.3-0.6-0.5-1.2-0.5c-0.3,0-0.6,0-0.9,0.1s-0.4,0.2-0.6,0.3
		c-0.2,0.1-0.3,0.2-0.4,0.3c-0.1,0.1-0.2,0.1-0.4,0.1c-0.1,0-0.2,0-0.2-0.1c-0.1-0.1-0.1-0.1-0.2-0.2l-0.2-0.5
		c0.4-0.4,0.9-0.8,1.4-1c0.5-0.2,1.1-0.3,1.7-0.3c0.4,0,0.8,0.1,1.2,0.2c0.3,0.1,0.6,0.4,0.9,0.6c0.2,0.3,0.4,0.6,0.5,1
		c0.1,0.4,0.2,0.8,0.2,1.3V448.7z M285.7,447.8c0.2,0,0.5,0,0.7-0.1c0.2-0.1,0.4-0.1,0.6-0.2c0.2-0.1,0.4-0.2,0.5-0.3
		c0.2-0.1,0.3-0.3,0.5-0.5v-1.7c-0.6,0-1.2,0-1.6,0.1c-0.4,0.1-0.8,0.2-1.1,0.3c-0.3,0.1-0.5,0.3-0.6,0.5c-0.1,0.2-0.2,0.4-0.2,0.6
		c0,0.2,0,0.4,0.1,0.6c0.1,0.2,0.2,0.3,0.3,0.4c0.1,0.1,0.2,0.2,0.4,0.2C285.3,447.8,285.5,447.8,285.7,447.8z"/>
	<path class="st1" d="M293.1,451.1c0,0.1-0.1,0.2-0.2,0.3c-0.1,0.1-0.2,0.1-0.3,0.1h-1l1.4-3.2l-3.3-7.7h1.2c0.1,0,0.2,0,0.3,0.1
		c0.1,0.1,0.1,0.1,0.1,0.2l2.1,5.1c0,0.1,0.1,0.2,0.1,0.4c0,0.1,0.1,0.2,0.1,0.4c0-0.1,0.1-0.2,0.1-0.4c0-0.1,0.1-0.2,0.1-0.4l2-5.1
		c0-0.1,0.1-0.2,0.2-0.2c0.1-0.1,0.2-0.1,0.2-0.1h1.1L293.1,451.1z"/>
	<path class="st1" d="M298.5,448.7v-8.1h0.8c0.2,0,0.3,0,0.3,0.1c0.1,0.1,0.1,0.2,0.1,0.3l0.1,1.3c0.3-0.6,0.6-1,1-1.3
		c0.4-0.3,0.9-0.5,1.4-0.5c0.2,0,0.4,0,0.6,0.1c0.2,0.1,0.3,0.1,0.5,0.2l-0.2,1.1c0,0.1-0.1,0.2-0.2,0.2c-0.1,0-0.2,0-0.3-0.1
		c-0.2-0.1-0.4-0.1-0.6-0.1c-0.5,0-0.9,0.1-1.2,0.4c-0.3,0.3-0.6,0.7-0.8,1.3v5.2H298.5z"/>
	<path class="st1" d="M307.6,440.5c0.6,0,1.1,0.1,1.6,0.3c0.5,0.2,0.9,0.5,1.2,0.8s0.6,0.8,0.7,1.3c0.2,0.5,0.3,1.1,0.3,1.7
		c0,0.6-0.1,1.2-0.3,1.7c-0.2,0.5-0.4,1-0.7,1.3c-0.3,0.4-0.7,0.6-1.2,0.8c-0.5,0.2-1,0.3-1.6,0.3s-1.1-0.1-1.6-0.3
		c-0.5-0.2-0.9-0.5-1.2-0.8c-0.3-0.4-0.6-0.8-0.8-1.3s-0.3-1.1-0.3-1.7c0-0.6,0.1-1.2,0.3-1.7s0.4-1,0.8-1.3
		c0.3-0.4,0.7-0.6,1.2-0.8C306.5,440.6,307,440.5,307.6,440.5z M307.6,447.7c0.8,0,1.4-0.3,1.7-0.8c0.4-0.5,0.6-1.3,0.6-2.3
		c0-1-0.2-1.7-0.6-2.3c-0.4-0.5-1-0.8-1.7-0.8c-0.4,0-0.7,0.1-1,0.2c-0.3,0.1-0.5,0.3-0.7,0.6s-0.3,0.6-0.4,1
		c-0.1,0.4-0.1,0.8-0.1,1.3s0,0.9,0.1,1.3c0.1,0.4,0.2,0.7,0.4,1c0.2,0.3,0.4,0.5,0.7,0.6C306.9,447.7,307.2,447.7,307.6,447.7z"/>
	<path class="st1" d="M314.3,436.9v11.8h-1.4v-11.8H314.3z"/>
	<path class="st1" d="M318,436.9v11.8h-1.4v-11.8H318z"/>
	<path class="st1" d="M325,444.2v4.5h-2.1v-11.6h3.4c0.8,0,1.4,0.1,2,0.2c0.5,0.2,1,0.4,1.3,0.7c0.4,0.3,0.6,0.6,0.8,1.1
		c0.2,0.4,0.2,0.9,0.2,1.4c0,0.4-0.1,0.8-0.2,1.1s-0.3,0.7-0.5,0.9c-0.2,0.3-0.5,0.5-0.8,0.7c-0.3,0.2-0.7,0.4-1.1,0.5
		c0.3,0.2,0.5,0.4,0.7,0.7l2.8,4.3h-1.9c-0.2,0-0.3,0-0.5-0.1c-0.1-0.1-0.2-0.2-0.3-0.3l-2.4-3.7c-0.1-0.1-0.2-0.2-0.3-0.3
		s-0.3-0.1-0.5-0.1H325z M325,442.6h1.3c0.4,0,0.7-0.1,1-0.2c0.3-0.1,0.5-0.2,0.7-0.4c0.2-0.2,0.3-0.4,0.4-0.6
		c0.1-0.2,0.1-0.5,0.1-0.8c0-0.6-0.2-1-0.6-1.4c-0.4-0.3-1-0.5-1.7-0.5H325V442.6z"/>
	<path class="st1" d="M335.9,440.4c0.5,0,1,0.1,1.4,0.2c0.4,0.2,0.8,0.4,1.1,0.7c0.3,0.3,0.5,0.7,0.7,1.2c0.2,0.5,0.3,1,0.3,1.6
		c0,0.2,0,0.3,0,0.4c0,0.1,0,0.2-0.1,0.2c0,0.1-0.1,0.1-0.1,0.1s-0.1,0-0.2,0h-4.9c0.1,0.8,0.3,1.5,0.7,1.9c0.4,0.4,0.9,0.6,1.5,0.6
		c0.3,0,0.6,0,0.8-0.1c0.2-0.1,0.4-0.2,0.6-0.2c0.2-0.1,0.3-0.2,0.4-0.2c0.1-0.1,0.3-0.1,0.4-0.1c0.1,0,0.1,0,0.2,0
		c0.1,0,0.1,0.1,0.1,0.1l0.6,0.7c-0.2,0.3-0.5,0.5-0.7,0.6c-0.3,0.2-0.5,0.3-0.8,0.4c-0.3,0.1-0.6,0.2-0.9,0.2
		c-0.3,0-0.6,0.1-0.9,0.1c-0.6,0-1.1-0.1-1.5-0.3c-0.5-0.2-0.9-0.5-1.2-0.8c-0.4-0.4-0.6-0.8-0.8-1.4c-0.2-0.5-0.3-1.2-0.3-1.9
		c0-0.6,0.1-1.1,0.3-1.6s0.4-0.9,0.8-1.3c0.3-0.4,0.7-0.7,1.2-0.9C334.7,440.5,335.3,440.4,335.9,440.4z M335.9,441.8
		c-0.6,0-1,0.2-1.3,0.5c-0.3,0.3-0.5,0.8-0.6,1.4h3.6c0-0.3,0-0.5-0.1-0.7c-0.1-0.2-0.2-0.4-0.3-0.6c-0.1-0.2-0.3-0.3-0.5-0.4
		C336.4,441.8,336.2,441.8,335.9,441.8z"/>
	<path class="st1" d="M342.6,436.8v11.9h-1.9v-11.9H342.6z"/>
	<path class="st1" d="M346.8,438.1c0,0.2,0,0.3-0.1,0.5c-0.1,0.1-0.2,0.3-0.3,0.4c-0.1,0.1-0.2,0.2-0.4,0.3s-0.3,0.1-0.5,0.1
		c-0.2,0-0.3,0-0.5-0.1s-0.3-0.2-0.4-0.3c-0.1-0.1-0.2-0.2-0.3-0.4c-0.1-0.1-0.1-0.3-0.1-0.5c0-0.2,0-0.3,0.1-0.5s0.2-0.3,0.3-0.4
		c0.1-0.1,0.2-0.2,0.4-0.3s0.3-0.1,0.5-0.1c0.2,0,0.3,0,0.5,0.1s0.3,0.2,0.4,0.3c0.1,0.1,0.2,0.2,0.3,0.4
		C346.8,437.8,346.8,437.9,346.8,438.1z M346.5,440.5v8.2h-1.9v-8.2H346.5z"/>
	<path class="st1" d="M351.7,440.4c0.5,0,1,0.1,1.4,0.2c0.4,0.2,0.8,0.4,1.1,0.7c0.3,0.3,0.5,0.7,0.7,1.2c0.2,0.5,0.3,1,0.3,1.6
		c0,0.2,0,0.3,0,0.4s0,0.2-0.1,0.2c0,0.1-0.1,0.1-0.1,0.1c-0.1,0-0.1,0-0.2,0h-4.9c0.1,0.8,0.3,1.5,0.7,1.9c0.4,0.4,0.9,0.6,1.5,0.6
		c0.3,0,0.6,0,0.8-0.1c0.2-0.1,0.4-0.2,0.6-0.2c0.2-0.1,0.3-0.2,0.4-0.2c0.1-0.1,0.3-0.1,0.4-0.1c0.1,0,0.1,0,0.2,0
		c0.1,0,0.1,0.1,0.1,0.1l0.6,0.7c-0.2,0.3-0.5,0.5-0.7,0.6c-0.3,0.2-0.5,0.3-0.8,0.4c-0.3,0.1-0.6,0.2-0.9,0.2
		c-0.3,0-0.6,0.1-0.9,0.1c-0.6,0-1.1-0.1-1.5-0.3c-0.5-0.2-0.9-0.5-1.2-0.8c-0.4-0.4-0.6-0.8-0.8-1.4c-0.2-0.5-0.3-1.2-0.3-1.9
		c0-0.6,0.1-1.1,0.3-1.6c0.2-0.5,0.4-0.9,0.8-1.3c0.3-0.4,0.7-0.7,1.2-0.9C350.6,440.5,351.1,440.4,351.7,440.4z M351.7,441.8
		c-0.6,0-1,0.2-1.3,0.5c-0.3,0.3-0.5,0.8-0.6,1.4h3.6c0-0.3,0-0.5-0.1-0.7c-0.1-0.2-0.2-0.4-0.3-0.6c-0.1-0.2-0.3-0.3-0.5-0.4
		C352.3,441.8,352,441.8,351.7,441.8z"/>
	<path class="st1" d="M356.7,448.7V442l-0.7-0.1c-0.2,0-0.3-0.1-0.4-0.2c-0.1-0.1-0.1-0.2-0.1-0.3v-0.8h1.2V440
		c0-0.5,0.1-0.9,0.2-1.3s0.3-0.7,0.6-1s0.6-0.5,0.9-0.6c0.4-0.1,0.8-0.2,1.2-0.2c0.4,0,0.7,0.1,1,0.2l0,1c0,0.2-0.1,0.3-0.2,0.3
		c-0.1,0-0.3,0.1-0.5,0.1c-0.2,0-0.4,0-0.6,0.1c-0.2,0.1-0.3,0.1-0.5,0.3c-0.1,0.1-0.2,0.3-0.3,0.5c-0.1,0.2-0.1,0.5-0.1,0.8v0.5
		h2.1v1.4h-2v6.7H356.7z"/>
	<path class="st1" d="M361.9,437.8c0-0.3,0-0.5,0.1-0.7c0.1-0.2,0.2-0.5,0.3-0.7c0.1-0.2,0.3-0.4,0.4-0.6c0.2-0.2,0.4-0.3,0.6-0.4
		c0.2-0.1,0.4-0.2,0.7-0.3c0.2-0.1,0.5-0.1,0.7-0.1s0.5,0,0.7,0.1c0.2,0.1,0.5,0.2,0.7,0.3c0.2,0.1,0.4,0.3,0.6,0.4
		c0.2,0.2,0.3,0.4,0.4,0.6c0.1,0.2,0.2,0.4,0.3,0.7c0.1,0.2,0.1,0.5,0.1,0.7c0,0.3,0,0.5-0.1,0.7c-0.1,0.2-0.2,0.5-0.3,0.7
		c-0.1,0.2-0.3,0.4-0.4,0.6c-0.2,0.2-0.4,0.3-0.6,0.4c-0.2,0.1-0.4,0.2-0.7,0.3c-0.2,0.1-0.5,0.1-0.7,0.1s-0.5,0-0.7-0.1
		c-0.2-0.1-0.5-0.2-0.7-0.3c-0.2-0.1-0.4-0.3-0.6-0.4c-0.2-0.2-0.3-0.4-0.4-0.6c-0.1-0.2-0.2-0.4-0.3-0.7
		C361.9,438.3,361.9,438,361.9,437.8z M362.4,437.8c0,0.3,0.1,0.6,0.2,0.9c0.1,0.3,0.3,0.5,0.5,0.7c0.2,0.2,0.4,0.4,0.7,0.5
		c0.3,0.1,0.6,0.2,0.9,0.2s0.6-0.1,0.9-0.2c0.3-0.1,0.5-0.3,0.7-0.5c0.2-0.2,0.4-0.5,0.5-0.7c0.1-0.3,0.2-0.6,0.2-0.9
		c0-0.2,0-0.4-0.1-0.6c-0.1-0.2-0.1-0.4-0.2-0.6c-0.1-0.2-0.2-0.3-0.4-0.5c-0.1-0.1-0.3-0.3-0.5-0.4c-0.2-0.1-0.4-0.2-0.6-0.2
		c-0.2-0.1-0.4-0.1-0.6-0.1c-0.2,0-0.4,0-0.6,0.1c-0.2,0.1-0.4,0.1-0.6,0.2c-0.2,0.1-0.3,0.2-0.5,0.4c-0.1,0.1-0.3,0.3-0.4,0.5
		c-0.1,0.2-0.2,0.4-0.2,0.6C362.4,437.3,362.4,437.6,362.4,437.8z M364.3,438.2v1.2h-0.8v-3.4h1.2c0.5,0,0.8,0.1,1,0.3
		c0.2,0.2,0.3,0.4,0.3,0.7c0,0.2-0.1,0.4-0.2,0.6c-0.1,0.2-0.3,0.3-0.5,0.4c0.1,0,0.1,0.1,0.1,0.1c0,0,0.1,0.1,0.1,0.2l0.7,1.2h-0.8
		c-0.1,0-0.2,0-0.2-0.1l-0.5-1c0,0-0.1-0.1-0.1-0.1c0,0-0.1,0-0.1,0H364.3z M364.3,437.7h0.3c0.1,0,0.2,0,0.3,0
		c0.1,0,0.1-0.1,0.2-0.1c0,0,0.1-0.1,0.1-0.2c0-0.1,0-0.1,0-0.2c0-0.1,0-0.1,0-0.2c0-0.1,0-0.1-0.1-0.1c0,0-0.1-0.1-0.2-0.1
		c-0.1,0-0.2,0-0.3,0h-0.4V437.7z"/>
</g>
<g>
	<path class="st1" d="M261.4,442.3c0.1-0.2,0.2-0.5,0.2-0.8c0-0.6-0.2-1.1-0.6-1.4c-0.4-0.3-1-0.5-1.8-0.5h-1.5v3.8h1.4
		c0.4,0,0.8,0,1.1-0.1c0.3-0.1,0.6-0.2,0.8-0.4C261.2,442.7,261.3,442.5,261.4,442.3z"/>
	<path class="st1" d="M251.3,439.6h-1.6v4.2h1.6c0.4,0,0.7-0.1,1-0.2s0.6-0.3,0.8-0.4c0.2-0.2,0.4-0.4,0.5-0.7
		c0.1-0.3,0.2-0.5,0.2-0.9c0-0.6-0.2-1.2-0.6-1.5C252.8,439.8,252.2,439.6,251.3,439.6z"/>
	<path class="st1" d="M255.4,428.2l-15.7,15.7l15.7,15.7l15.7-15.7L255.4,428.2z M254.9,443c-0.2,0.4-0.4,0.7-0.7,1
		c-0.3,0.3-0.7,0.5-1.2,0.7c-0.5,0.2-1,0.2-1.6,0.2h-1.6v3.8h-1.4v-10.2h3c0.6,0,1.2,0.1,1.7,0.2c0.5,0.1,0.9,0.4,1.2,0.6
		c0.3,0.3,0.5,0.6,0.7,1c0.2,0.4,0.2,0.8,0.2,1.3C255.1,442.2,255.1,442.6,254.9,443z M262.1,448.4l-2.6-3.6
		c-0.1-0.1-0.2-0.2-0.3-0.2c-0.1,0-0.2-0.1-0.4-0.1h-1v4.3h-1.4v-10.2h2.9c0.6,0,1.2,0.1,1.7,0.2c0.5,0.1,0.9,0.3,1.2,0.6
		c0.3,0.2,0.5,0.5,0.7,0.9c0.1,0.3,0.2,0.7,0.2,1.2c0,0.4-0.1,0.7-0.2,1c-0.1,0.3-0.3,0.6-0.5,0.8c-0.2,0.2-0.5,0.5-0.8,0.6
		c-0.3,0.2-0.7,0.3-1.1,0.4c0.2,0.1,0.3,0.2,0.5,0.4l3,4h-1.2C262.4,448.7,262.2,448.6,262.1,448.4z"/>
</g>
</svg>
