<svg id="Layer_1" data-name="Layer 1" xmlns="http://www.w3.org/2000/svg" viewBox="0 0 24.1 27.4"><defs><style>.cls-1{}</style></defs><title>1099_icon</title><path class="cls-1" d="M311.7,381.8H294v27.4h24.1v-21Zm.3,1.4,4.8,4.8H312Zm-17.1,25.2V382.6h16.3v6.2h6.2v19.6H294.9Z" transform="translate(-294 -381.8)"/><path class="cls-1" d="M300,399.8v.5h-2.8v-.5h1.1v-3.7l-.9.8a.1.1,0,0,0-.1.1H297l-.2-.3,1.6-1.3h.6v4.7h1Z" transform="translate(-294 -381.8)"/><path class="cls-1" d="M304.3,397.7a4.48,4.48,0,0,1-.1,1.2,2,2,0,0,1-.4.8,2.65,2.65,0,0,1-.6.5,1.85,1.85,0,0,1-.7.2,1.45,1.45,0,0,1-.7-.2,2.65,2.65,0,0,1-.6-.5,2,2,0,0,1-.4-.8,4.12,4.12,0,0,1-.1-1.2,4.48,4.48,0,0,1,.1-1.2,1.51,1.51,0,0,1,.4-.8,2.65,2.65,0,0,1,.6-.5,1.85,1.85,0,0,1,.7-.2,1.45,1.45,0,0,1,.7.2,2.65,2.65,0,0,1,.6.5,2,2,0,0,1,.4.8A4.12,4.12,0,0,1,304.3,397.7Zm-.7,0a3.08,3.08,0,0,0-.1-1c-.1-.3-.1-.5-.3-.6s-.2-.3-.4-.3a.85.85,0,0,0-.8,0c-.1.1-.3.2-.4.3l-.3.6a2.79,2.79,0,0,0-.1,1,3.08,3.08,0,0,0,.1,1c.1.3.1.5.3.6s.2.3.4.3.3.1.4.1a.6.6,0,0,0,.4-.1c.1-.1.3-.2.4-.3l.3-.6A3.08,3.08,0,0,0,303.6,397.7Z" transform="translate(-294 -381.8)"/><path class="cls-1" d="M306.9,398.2a1.38,1.38,0,0,0,.3-.4.76.76,0,0,1-.4.2.9.9,0,0,1-.5.1.75.75,0,0,1-.5-.1,2.18,2.18,0,0,0-.5-.3,2.18,2.18,0,0,1-.3-.5,1.85,1.85,0,0,1,0-1.2,1,1,0,0,1,.4-.5c.2-.1.3-.3.6-.4a1.7,1.7,0,0,1,.7-.1,1.48,1.48,0,0,1,.7.1,2.19,2.19,0,0,1,.5.3.85.85,0,0,1,.3.5,1.48,1.48,0,0,1,.1.7v.4c0,.1-.1.3-.1.4s-.1.3-.2.4-.2.3-.3.4l-1.3,1.8-.1.1h-.8Zm-1.4-1.6a.78.78,0,0,0,.3.7.91.91,0,0,0,.7.3c.2,0,.3,0,.4-.1s.2-.1.3-.2.2-.2.2-.3.1-.2.1-.4,0-.3-.1-.4-.1-.2-.2-.3-.2-.2-.3-.2-.3-.1-.4-.1-.3,0-.4.1-.2.1-.3.2-.2.2-.2.3S305.5,396.5,305.5,396.6Z" transform="translate(-294 -381.8)"/><path class="cls-1" d="M311,398.2a1.38,1.38,0,0,0,.3-.4.76.76,0,0,1-.4.2.9.9,0,0,1-.5.1.75.75,0,0,1-.5-.1,2.18,2.18,0,0,0-.5-.3,2.18,2.18,0,0,1-.3-.5,1.85,1.85,0,0,1,0-1.2,1,1,0,0,1,.4-.5c.2-.1.3-.3.6-.4a1.7,1.7,0,0,1,.7-.1,1.48,1.48,0,0,1,.7.1,2.19,2.19,0,0,1,.5.3.85.85,0,0,1,.3.5,1.48,1.48,0,0,1,.1.7v.4c0,.1-.1.3-.1.4s-.1.3-.2.4-.2.3-.3.4l-1.3,1.8-.1.1h-.8Zm-1.5-1.6a.78.78,0,0,0,.3.7.91.91,0,0,0,.7.3c.2,0,.3,0,.4-.1s.2-.1.3-.2.2-.2.2-.3.1-.2.1-.4,0-.3-.1-.4-.1-.2-.2-.3-.2-.2-.3-.2-.3-.1-.4-.1-.3,0-.4.1-.2.1-.3.2-.2.2-.2.3S309.5,396.5,309.5,396.6Z" transform="translate(-294 -381.8)"/><path class="cls-1" d="M315.2,397.2h0l-.1.1H315a.35.35,0,0,0-.2-.1c-.1,0-.1-.1-.2-.1H314a.35.35,0,0,0-.2.1c-.1,0-.1.1-.1.2v.2c0,.1,0,.2.1.2l.2.2c.1,0,.2.1.3.1s.2.1.3.1.2.1.3.1.2.1.3.2.2.2.2.3.1.2.1.4a.9.9,0,0,1-.1.5c-.1.1-.2.3-.3.4s-.3.2-.4.3a1.27,1.27,0,0,1-.6.1,1.48,1.48,0,0,1-.7-.1,2.19,2.19,0,0,1-.5-.3l.2-.3a.1.1,0,0,1,.1-.1h.1a.1.1,0,0,1,.1.1c0,.1.1.1.2.1s.1.1.2.1h.7a.35.35,0,0,0,.3-.3v-.2c0-.1,0-.2-.1-.2l-.2-.2a.37.37,0,0,0-.3-.1c-.1,0-.2-.1-.3-.1s-.2-.1-.3-.1-.2-.1-.3-.2-.2-.2-.2-.3-.1-.2-.1-.4a.6.6,0,0,1,.1-.4c.1-.1.1-.2.3-.3a.76.76,0,0,1,.4-.2,1.27,1.27,0,0,1,.6-.1,1.7,1.7,0,0,1,.7.1,2.19,2.19,0,0,1,.5.3Z" transform="translate(-294 -381.8)"/></svg>
