<svg id="Layer_1" data-name="Layer 1" xmlns="http://www.w3.org/2000/svg" viewBox="0 0 49.5 49.5"><defs><style>.cls-1{fill:#fff;}</style></defs><title>EP_icon</title><rect x="287.82" y="378.89" width="35" height="35" transform="translate(-471.44 -39.65) rotate(-45)"/><path class="cls-1" d="M304.5,403.2v1.9H294v-17h10.5V390h-8.2v5.7h6.6v1.8h-6.6v5.8h8.2Z" transform="translate(-280.57 -371.65)"/><path class="cls-1" d="M312.5,388.1a7.89,7.89,0,0,1,2.8.4,4.33,4.33,0,0,1,2,1.1,5.23,5.23,0,0,1,1.2,1.7,5.09,5.09,0,0,1,.4,2.2,5.38,5.38,0,0,1-.4,2.2,5.23,5.23,0,0,1-1.2,1.7,5.47,5.47,0,0,1-2,1.1,7.66,7.66,0,0,1-2.7.4h-2.7v6.4h-2.3v-17h4.9Zm0,8.8a4.31,4.31,0,0,0,1.7-.3,5.39,5.39,0,0,0,1.3-.7,4.44,4.44,0,0,0,.8-1.1,3.19,3.19,0,0,0,.3-1.4,3,3,0,0,0-1-2.5,4.48,4.48,0,0,0-3-.9h-2.7v7h2.6Z" transform="translate(-280.57 -371.65)"/></svg>