<?xml version="1.0" encoding="utf-8"?>
<!-- Generator: Adobe Illustrator 21.1.0, SVG Export Plug-In . SVG Version: 6.00 Build 0)  -->
<svg version="1.1" id="Layer_1" xmlns="http://www.w3.org/2000/svg" xmlns:xlink="http://www.w3.org/1999/xlink" x="0px" y="0px"
	 viewBox="0 0 49.5 49.5" style="enable-background:new 0 0 49.5 49.5;" xml:space="preserve">
<style type="text/css">
	.st0{fill:#F16521;}
</style>
<title>EP_icon</title>
<rect x="7.2" y="7.2" transform="matrix(0.7071 -0.7071 0.7071 0.7071 -10.2509 24.7446)" width="35" height="35"/>
<path class="st0" d="M23.9,31.6v1.9H13.4v-17h10.5v1.9h-8.2v5.7h6.6v1.8h-6.6v5.8L23.9,31.6L23.9,31.6z"/>
<path class="st0" d="M31.9,16.5c0.9,0,1.9,0.1,2.8,0.4c0.8,0.2,1.4,0.6,2,1.1c0.5,0.5,0.9,1.1,1.2,1.7c0.3,0.7,0.4,1.4,0.4,2.2
	c0,0.8-0.1,1.5-0.4,2.2c-0.3,0.6-0.7,1.2-1.2,1.7c-0.6,0.5-1.3,0.9-2,1.1c-0.9,0.3-1.8,0.4-2.7,0.4h-2.7v6.4H27v-17h4.9L31.9,16.5z
	 M31.9,25.3c0.6,0,1.2-0.1,1.7-0.3c0.5-0.2,0.9-0.4,1.3-0.7c0.3-0.3,0.6-0.7,0.8-1.1c0.2-0.4,0.3-0.9,0.3-1.4c0.1-0.9-0.3-1.9-1-2.5
	c-0.9-0.7-1.9-1-3-0.9h-2.7v7h2.6L31.9,25.3z"/>
</svg>
