<!-- Generated by IcoMoon.io -->
<svg version="1.1" xmlns="http://www.w3.org/2000/svg" width="1024" height="1024" viewBox="0 0 1024 1024">
<title>ep_icon</title>
<g id="icomoon-ignore">
</g>
<path fill="#ffffff" d="M-0.1 511.922l511.974-511.974 511.974 511.974-511.974 511.974-511.974-511.974z"></path>
<path fill="#F16521" d="M495.037 652.671v39.305h-217.212v-351.677h217.212v39.305h-169.632v117.915h136.533v37.236h-136.533v119.984h169.632z"></path>
<path fill="#F16521" d="M660.532 340.299c1.865-0.076 4.054-0.12 6.253-0.12 18.485 0 36.252 3.073 52.819 8.736l-1.149-0.341c16.224 3.987 30.219 11.938 41.397 22.778l-0.023-0.022c10.32 9.744 18.691 21.427 24.55 34.483l0.275 0.685c5.289 12.136 8.366 26.274 8.366 41.131 0 1.54-0.033 3.073-0.099 4.597l0.007-0.217c0.031 0.978 0.048 2.127 0.048 3.281 0 15.229-3.059 29.744-8.596 42.964l0.273-0.734c-6.133 13.74-14.504 25.424-24.772 35.119l-0.052 0.049c-11.569 10.049-25.388 17.851-40.572 22.542l-0.802 0.213c-15.145 5.297-32.604 8.356-50.778 8.356-1.785 0-3.563-0.030-5.334-0.088l0.258 0.007h-55.855v132.396h-47.58v-351.677h101.366zM660.532 522.343c0.716 0.021 1.558 0.032 2.403 0.032 11.796 0 23.058-2.291 33.363-6.452l-0.599 0.214c10.267-3.876 19.147-8.757 27.199-14.696l-0.306 0.215c6.487-6.522 12.003-14.019 16.308-22.249l0.241-0.506c3.922-8.191 6.214-17.806 6.214-27.955 0-0.354-0.003-0.707-0.008-1.060l0.001 0.053c0.142-1.576 0.223-3.409 0.223-5.261 0-18.457-8.058-35.033-20.847-46.401l-0.063-0.055c-15.366-11.744-34.848-18.818-55.981-18.818-2.139 0-4.261 0.072-6.364 0.215l0.285-0.015h-55.855v144.808h53.786z"></path>
</svg>
