<svg id="Layer_1" data-name="Layer 1" xmlns="http://www.w3.org/2000/svg" viewBox="0 0 150.7 78"><defs><style>.cls-1{fill:#231f20;}</style></defs><title>EP_logo_vertical</title><path class="cls-1" d="M299.9,355.6l-24.7,24.7L299.9,405l24.7-24.7ZM299,389H288.5V372H299v1.9h-8.2v5.7h6.6v1.8h-6.6v5.8H299Zm12.7-7.9a5.47,5.47,0,0,1-2,1.1,7.66,7.66,0,0,1-2.7.4h-2.7V389H302V372h5a7.89,7.89,0,0,1,2.8.4,5.47,5.47,0,0,1,2,1.1,5.23,5.23,0,0,1,1.2,1.7,6.25,6.25,0,0,1,0,4.4A5.8,5.8,0,0,1,311.7,381.1Z" transform="translate(-225 -355.6)"/><path class="cls-1" d="M307,373.8h-2.7v7H307a4.31,4.31,0,0,0,1.7-.3,5.39,5.39,0,0,0,1.3-.7,4.44,4.44,0,0,0,.8-1.1,3.19,3.19,0,0,0,.3-1.4,3,3,0,0,0-1-2.5A4.14,4.14,0,0,0,307,373.8Z" transform="translate(-225 -355.6)"/><path class="cls-1" d="M234.7,428.1v1.7H225V414h9.7v1.7h-7.6v5.2h6.1v1.7h-6.1V428l7.6.1Z" transform="translate(-225 -355.6)"/><path class="cls-1" d="M236.6,429.9V418.8h1.2c.3,0,.5.1.5.4l.1,1.1a5.26,5.26,0,0,1,1.4-1.2,3.45,3.45,0,0,1,1.8-.5,2.61,2.61,0,0,1,1.8.6,4,4,0,0,1,1,1.7,4.37,4.37,0,0,1,.6-1,3.51,3.51,0,0,1,.9-.7,4.18,4.18,0,0,1,1-.4,4.1,4.1,0,0,1,1.1-.1,4.15,4.15,0,0,1,1.6.3,5,5,0,0,1,1.2.8,3.29,3.29,0,0,1,.7,1.3,4.84,4.84,0,0,1,.3,1.8V430h-2v-7.1a3,3,0,0,0-.6-2,1.86,1.86,0,0,0-1.6-.7,2.92,2.92,0,0,0-.9.2,3.51,3.51,0,0,0-.8.5,2.18,2.18,0,0,0-.5.8,3.73,3.73,0,0,0-.2,1.2V430h-2v-7.1a3.44,3.44,0,0,0-.5-2,2.18,2.18,0,0,0-1.6-.7,2,2,0,0,0-1.3.4,3.84,3.84,0,0,0-1.1,1.1V430l-2.1-.1Z" transform="translate(-225 -355.6)"/><path class="cls-1" d="M256.2,420.4a7,7,0,0,1,1.6-1.4,3.64,3.64,0,0,1,2.1-.5,3.29,3.29,0,0,1,1.7.4,2.76,2.76,0,0,1,1.3,1.1,4.94,4.94,0,0,1,.8,1.8,9,9,0,0,1,.3,2.5,8.52,8.52,0,0,1-.3,2.3,4,4,0,0,1-1,1.8,4.43,4.43,0,0,1-1.5,1.2,4.48,4.48,0,0,1-2,.4,4.84,4.84,0,0,1-1.8-.3,4.12,4.12,0,0,1-1.3-1v4.9h-2V418.7h1.2c.3,0,.5.1.5.4Zm.1,6.8a3.54,3.54,0,0,0,1.2,1,3.19,3.19,0,0,0,1.4.3,3,3,0,0,0,2.4-1.1,4.9,4.9,0,0,0,.8-3.2,11.08,11.08,0,0,0-.2-1.9,3.1,3.1,0,0,0-.6-1.3,1.6,1.6,0,0,0-.9-.7,2.54,2.54,0,0,0-1.2-.2,3.29,3.29,0,0,0-1.7.4,4.89,4.89,0,0,0-1.3,1.2v5.5h.1Z" transform="translate(-225 -355.6)"/><path class="cls-1" d="M268.3,413.7v16.2h-2V413.7Z" transform="translate(-225 -355.6)"/><path class="cls-1" d="M275.9,418.5a5.38,5.38,0,0,1,2.2.4,5.23,5.23,0,0,1,1.7,1.2,5.44,5.44,0,0,1,1.1,1.8,8.59,8.59,0,0,1,.4,2.4,6.05,6.05,0,0,1-.4,2.4,4.18,4.18,0,0,1-1.1,1.8,3.86,3.86,0,0,1-1.7,1.1,5.38,5.38,0,0,1-2.2.4,5.09,5.09,0,0,1-2.2-.4,7.12,7.12,0,0,1-1.7-1.1,5.44,5.44,0,0,1-1.1-1.8,8.59,8.59,0,0,1-.4-2.4,6.05,6.05,0,0,1,.4-2.4,4.18,4.18,0,0,1,1.1-1.8,5.23,5.23,0,0,1,1.7-1.2A7.19,7.19,0,0,1,275.9,418.5Zm0,10a3.1,3.1,0,0,0,2.5-1.1,4.77,4.77,0,0,0,.8-3.1,5.45,5.45,0,0,0-.8-3.1,3,3,0,0,0-2.5-1.1,3.65,3.65,0,0,0-1.5.3,2.72,2.72,0,0,0-1,.8,3.1,3.1,0,0,0-.6,1.3,9,9,0,0,0-.2,1.8,5.69,5.69,0,0,0,.8,3.1A2.73,2.73,0,0,0,275.9,428.5Z" transform="translate(-225 -355.6)"/><path class="cls-1" d="M292.6,418.7l-6.2,14.4c-.1.1-.1.3-.2.4a.75.75,0,0,1-.5.1h-1.5l2-4.4-4.6-10.5h1.7c.2,0,.3,0,.4.1s.2.2.2.3l3,7c.1.3.2.6.3,1,.1-.3.2-.7.3-1l2.9-7c0-.1.1-.2.2-.3s.2-.1.4-.1Z" transform="translate(-225 -355.6)"/><path class="cls-1" d="M302.7,428.3a3.63,3.63,0,0,1-.9.8,3.7,3.7,0,0,1-1.1.5l-1.2.3a4.87,4.87,0,0,1-1.2.1,4.64,4.64,0,0,1-2.1-.4,6.19,6.19,0,0,1-1.7-1.1,5,5,0,0,1-1.1-1.9,7.1,7.1,0,0,1-.4-2.6,5.38,5.38,0,0,1,.4-2.2,5.24,5.24,0,0,1,1-1.8,4.81,4.81,0,0,1,1.6-1.2,5.09,5.09,0,0,1,2.2-.4,5.82,5.82,0,0,1,1.9.3,3.07,3.07,0,0,1,1.5,1,4.88,4.88,0,0,1,1,1.6,6.54,6.54,0,0,1,.4,2.1c0,.3,0,.5-.1.6a.52.52,0,0,1-.4.2H295a4.84,4.84,0,0,0,.3,1.8,4,4,0,0,0,.7,1.3,4.44,4.44,0,0,0,1.1.8,3.19,3.19,0,0,0,1.4.3,5.07,5.07,0,0,0,1.3-.2,1.88,1.88,0,0,0,.9-.4,1.54,1.54,0,0,0,.6-.4c.2-.1.3-.2.4-.2a.52.52,0,0,1,.4.2Zm-1.6-5.2a3.73,3.73,0,0,0-.2-1.2,2.07,2.07,0,0,0-.6-1,1.46,1.46,0,0,0-.9-.6,5,5,0,0,0-1.2-.2,3.11,3.11,0,0,0-2.2.8,3.78,3.78,0,0,0-1,2.3l6.1-.1Z" transform="translate(-225 -355.6)"/><path class="cls-1" d="M314,428.3a3.63,3.63,0,0,1-.9.8,3.7,3.7,0,0,1-1.1.5l-1.2.3a4.87,4.87,0,0,1-1.2.1,4.64,4.64,0,0,1-2.1-.4,6.19,6.19,0,0,1-1.7-1.1,5,5,0,0,1-1.1-1.9,7.1,7.1,0,0,1-.4-2.6,5.38,5.38,0,0,1,.4-2.2,5.24,5.24,0,0,1,1-1.8,4.81,4.81,0,0,1,1.6-1.2,5.09,5.09,0,0,1,2.2-.4,5.82,5.82,0,0,1,1.9.3,3.07,3.07,0,0,1,1.5,1,6.24,6.24,0,0,1,1,1.6,6.54,6.54,0,0,1,.4,2.1c0,.3,0,.5-.1.6a.52.52,0,0,1-.4.2h-7.4a4.84,4.84,0,0,0,.3,1.8,4,4,0,0,0,.7,1.3,4.44,4.44,0,0,0,1.1.8,3.19,3.19,0,0,0,1.4.3,5.07,5.07,0,0,0,1.3-.2,1.88,1.88,0,0,0,.9-.4,1.54,1.54,0,0,0,.6-.4c.2-.1.3-.2.4-.2a.52.52,0,0,1,.4.2Zm-1.6-5.2a3.73,3.73,0,0,0-.2-1.2,2.07,2.07,0,0,0-.6-1,1.46,1.46,0,0,0-.9-.6,2.54,2.54,0,0,0-1.2-.2,3.11,3.11,0,0,0-2.2.8,3.78,3.78,0,0,0-1,2.3l6.1-.1Z" transform="translate(-225 -355.6)"/><path class="cls-1" d="M326.9,414a7.89,7.89,0,0,1,2.8.4,4.89,4.89,0,0,1,1.9,1,3.55,3.55,0,0,1,1.1,1.6,6.46,6.46,0,0,1,.4,2,4.64,4.64,0,0,1-.4,2.1,4.82,4.82,0,0,1-1.2,1.7,5.93,5.93,0,0,1-1.9,1.1,7.66,7.66,0,0,1-2.7.4h-2.2v5.6h-3V414Zm0,8a5.9,5.9,0,0,0,1.4-.2,2.07,2.07,0,0,0,1-.6,2.36,2.36,0,0,0,.6-.9,4.3,4.3,0,0,0,.2-1.2,5,5,0,0,0-.2-1.2,2.36,2.36,0,0,0-.6-.9,8.79,8.79,0,0,0-1-.6,5.9,5.9,0,0,0-1.4-.2h-2.2v5.7h2.2Z" transform="translate(-225 -355.6)"/><path class="cls-1" d="M339.1,418.4a5.87,5.87,0,0,1,2.3.4,5.67,5.67,0,0,1,1.8,1.2,4.18,4.18,0,0,1,1.1,1.8,8.59,8.59,0,0,1,.4,2.4,6.05,6.05,0,0,1-.4,2.4,5.44,5.44,0,0,1-1.1,1.8,5.68,5.68,0,0,1-1.8,1.2,5.56,5.56,0,0,1-2.3.4,5.87,5.87,0,0,1-2.3-.4,5.67,5.67,0,0,1-1.8-1.2,4.18,4.18,0,0,1-1.1-1.8,7.4,7.4,0,0,1,0-4.8A5.44,5.44,0,0,1,335,420a5.68,5.68,0,0,1,1.8-1.2A5.87,5.87,0,0,1,339.1,418.4Zm0,9.5a2.58,2.58,0,0,0,2.1-.9,4.46,4.46,0,0,0,.7-2.8,4.65,4.65,0,0,0-.7-2.8,2.52,2.52,0,0,0-2.1-1,2.18,2.18,0,0,0-2.1,1,4.46,4.46,0,0,0-.7,2.8,4.65,4.65,0,0,0,.7,2.8A2.45,2.45,0,0,0,339.1,427.9Z" transform="translate(-225 -355.6)"/><path class="cls-1" d="M349,420.5a5.34,5.34,0,0,1,1.3-1.6,2.72,2.72,0,0,1,1.7-.6,2.77,2.77,0,0,1,1.3.3l-.2,2c0,.1-.1.2-.2.3a.37.37,0,0,1-.3.1,1.09,1.09,0,0,1-.5-.1c-.2,0-.4-.1-.6-.1a2,2,0,0,0-.8.1,2.09,2.09,0,0,0-.6.4,2.65,2.65,0,0,0-.5.6,5.94,5.94,0,0,0-.4.8v7h-2.7V418.4h1.6c.3,0,.5,0,.6.1a.76.76,0,0,1,.2.5Z" transform="translate(-225 -355.6)"/><path class="cls-1" d="M358.1,430a2.8,2.8,0,0,1-3.1-3.1v-6.3h-1.2a.6.6,0,0,1-.4-.1.52.52,0,0,1-.2-.4V419l1.8-.3.6-3.1c0-.1.1-.3.2-.3s.2-.1.4-.1h1.4v3.6h3v1.9h-3v6.1a1,1,0,0,0,.3.8.91.91,0,0,0,.7.3c.2,0,.3,0,.4-.1s.2-.1.3-.1a.35.35,0,0,0,.2-.1c.1,0,.1-.1.2-.1s.1,0,.2.1.1.1.2.2l.8,1.3a3.69,3.69,0,0,1-1.4.7A3.18,3.18,0,0,1,358.1,430Z" transform="translate(-225 -355.6)"/><path class="cls-1" d="M361.9,420.1a6.74,6.74,0,0,1,4.7-1.8,4.84,4.84,0,0,1,1.8.3,3,3,0,0,1,1.3.9,3.22,3.22,0,0,1,.8,1.4,4.84,4.84,0,0,1,.3,1.8v7.1h-1.2c-.3,0-.5,0-.6-.1a1.07,1.07,0,0,1-.3-.5l-.2-.8c-.3.3-.6.5-.8.7a9.22,9.22,0,0,1-.8.5l-.9.3a3.75,3.75,0,0,1-1.1.1,5.07,5.07,0,0,1-1.3-.2,1.7,1.7,0,0,1-1-.6,3.59,3.59,0,0,1-.7-1,4.23,4.23,0,0,1-.1-2.2,2.18,2.18,0,0,1,.5-.8,2.7,2.7,0,0,1,.8-.7,7.68,7.68,0,0,1,3.1-1,15.15,15.15,0,0,1,2.3-.2v-.7a2.65,2.65,0,0,0-.5-1.7,1.62,1.62,0,0,0-1.4-.5,3.59,3.59,0,0,0-1.1.2c-.3.1-.5.2-.8.3l-.6.3a1.42,1.42,0,0,1-.6.2.75.75,0,0,1-.5-.1l-.3-.3Zm6.2,4.9a11.24,11.24,0,0,0-2,.2,3.32,3.32,0,0,0-1.3.4c-.3.2-.6.3-.7.5a1.45,1.45,0,0,0-.2.7,1.05,1.05,0,0,0,.4,1,2,2,0,0,0,1.1.3,2.9,2.9,0,0,0,1.4-.3,4.7,4.7,0,0,0,1.2-.9V425Z" transform="translate(-225 -355.6)"/><path class="cls-1" d="M375.7,413.5v16.3H373V413.5Z" transform="translate(-225 -355.6)"/></svg>