<svg id="Layer_1" data-name="Layer 1" xmlns="http://www.w3.org/2000/svg" viewBox="0 0 16.4 22.8"><defs><style>.cls-1{}</style></defs><title>Nav_lock</title><path class="cls-1" d="M312.9,394.2v-2.6a6.9,6.9,0,0,0-13.8,0v2.6h-1.3v13.3h16.4V394.2Zm-13-2.5a6.2,6.2,0,1,1,12.4,0v2.6h-1v-2.6a5.1,5.1,0,1,0-10.2,0v2.6h-1v-2.6Zm10.6,2.5h-8.9v-2.6a4.4,4.4,0,0,1,8.8,0v2.6Zm3,12.7h-15V395h14.9v11.9Z" transform="translate(-297.8 -384.7)"/><path class="cls-1" d="M306.2,397.3a1.9,1.9,0,0,0-1.9,1.9,2,2,0,0,0,.6,1.4v4.8h2.5v-4.8a1.91,1.91,0,0,0-1.2-3.3Zm.6,2.7-.1.1v4.5h-1.1v-4.5l-.1-.1a1.19,1.19,0,0,1-.5-.9,1.2,1.2,0,0,1,2.4,0A1.46,1.46,0,0,1,306.8,400Z" transform="translate(-297.8 -384.7)"/></svg>
