<svg id="Layer_1" data-name="Layer 1" xmlns="http://www.w3.org/2000/svg" viewBox="0 0 21.85 22.75"><defs><style>.cls-1{fill:none;stroke:#231f20;stroke-miterlimit:10;stroke-width:0.75px;}</style></defs><title>Nav_bell</title><path class="cls-1" d="M306.1,407.2a3,3,0,0,0,2.9-2.1h-5.9A3.26,3.26,0,0,0,306.1,407.2Z" transform="translate(-295.23 -384.82)"/><path class="cls-1" d="M315.3,402.3H297a1.4,1.4,0,0,0,0,2.8h18.3a1.37,1.37,0,0,0,1.4-1.4A1.5,1.5,0,0,0,315.3,402.3Z" transform="translate(-295.23 -384.82)"/><path class="cls-1" d="M312.4,392.9a6.45,6.45,0,0,0-4.6-6.1,1.61,1.61,0,0,0-1.7-1.6,1.67,1.67,0,0,0-1.7,1.6,6.24,6.24,0,0,0-4.6,6.1c0,4.9-.7,7.8-2.2,9.4h17C313.1,400.6,312.4,397.8,312.4,392.9Z" transform="translate(-295.23 -384.82)"/></svg>