<!-- Generated by IcoMoon.io -->
<svg version="1.1" xmlns="http://www.w3.org/2000/svg" width="1805" height="1024" viewBox="0 0 1805 1024">
<title>1099</title>
<g id="icomoon-ignore">
</g>
<path fill="#000" d="M0 0v1024h1805.474v-1024zM1756.968 975.495h-1703.074v-932.379h1703.074z"></path>
<path fill="#000" d="M350.316 889.263v21.558h1110.232v-21.558c7.441-99.837 90.273-178.021 191.365-178.021 2.829 0 5.645 0.061 8.444 0.182l-0.399-0.014h26.947v-398.821h-26.947c-2.4 0.108-5.216 0.169-8.045 0.169-101.092 0-183.924-78.184-191.327-177.384l-0.038-0.638v-21.558h-1115.621l5.389 26.947c1.482 10.548 3.366 19.67 5.764 28.58l-0.374-1.633c-7.441 99.837-90.273 178.021-191.365 178.021-2.829 0-5.645-0.061-8.444-0.182l0.399 0.014h-26.947v366.484h26.947c1.243-0.029 2.706-0.046 4.174-0.046 100.726 0 183.169 78.278 189.816 177.319l0.031 0.579zM177.853 388.042c120.727-5.885 217.511-100.803 226.312-220.185l0.046-0.784v-10.779h1007.832c17.556 109.68 108.643 193.381 220.374 199.385l0.594 0.025v307.2c-112.241 6.239-203.217 89.832-220.786 198.049l-0.182 1.362h-1013.221c-17.556-109.68-108.643-193.381-220.374-199.385l-0.594-0.025v-274.863z"></path>
<path fill="#000" d="M905.432 738.358c130.967 0 237.137-106.17 237.137-237.137s-106.17-237.137-237.137-237.137c-130.967 0-237.137 106.17-237.137 237.137v0c-0.033 1.459-0.052 3.178-0.052 4.902 0 128.288 103.998 232.286 232.286 232.286 1.724 0 3.443-0.019 5.158-0.056l-0.256 0.004zM905.432 312.589c107.155 0 194.021 86.866 194.021 194.021s-86.866 194.021-194.021 194.021c-107.155 0-194.021-86.866-194.021-194.021v0c0-0.16-0.001-0.35-0.001-0.54 0-106.857 86.625-193.482 193.482-193.482 0.19 0 0.379 0 0.569 0.001h-0.029z"></path>
</svg>
