<svg id="Layer_1" data-name="Layer 1" xmlns="http://www.w3.org/2000/svg" viewBox="0 0 33.5 19"><defs><style></style></defs><title>PayStub_icon</title><path class="cls-1" d="M289.5,386.5v19H323v-19Zm32.6,18.1H290.5V387.3h31.6Z" transform="translate(-289.5 -386.5)"/><path class="cls-1" d="M296,403v.4h20.6V403a3.56,3.56,0,0,1,3.7-3.3h.5v-7.4h-.5a3.56,3.56,0,0,1-3.7-3.3v-.4H295.9l.1.5a4.33,4.33,0,0,0,.1.5,3.56,3.56,0,0,1-3.7,3.3h-.5v6.8h.5A3.53,3.53,0,0,1,296,403Zm-3.2-9.3a4.42,4.42,0,0,0,4.2-4.1v-.2h18.7a4.38,4.38,0,0,0,4.1,3.7v5.7a4.39,4.39,0,0,0-4.1,3.7H296.9a4.38,4.38,0,0,0-4.1-3.7v-5.1Z" transform="translate(-289.5 -386.5)"/><path class="cls-1" d="M306.3,400.2a4.4,4.4,0,1,0-4.4-4.4A4.31,4.31,0,0,0,306.3,400.2Zm0-7.9a3.6,3.6,0,1,1-3.6,3.6A3.59,3.59,0,0,1,306.3,392.3Z" transform="translate(-289.5 -386.5)"/></svg>
