<svg id="Layer_1" data-name="Layer 1" xmlns="http://www.w3.org/2000/svg" viewBox="0 0 17.1 19.4"><defs><style>.cls-1{}</style></defs><title>PDF_icon</title><path class="cls-1" d="M310.4,386.3H297.9v19.4H315V390.8Zm.2,1,3.4,3.4h-3.4Zm-12.1,17.8V386.8H310v4.4h4.4v13.9Z" transform="translate(-297.9 -386.3)"/><path id="path4463" class="cls-1" d="M304.2,397.7a22.56,22.56,0,0,1,1.1-2.2h0l.1-.3c-.4-1.6-.7-2.8-.4-3.7h0a.6.6,0,0,1,.6-.3h.2c.4,0,.5.5.6.6h0a5.38,5.38,0,0,1-.1.8h0a2.48,2.48,0,0,0-.1-.8h0a1.54,1.54,0,0,0-.4-.6h0c-.1,0-.1.1-.1.3h0c0,.2-.1.5-.1.7h0a7.47,7.47,0,0,0,.3,2h0c0-.1.1-.2.1-.3h0a13,13,0,0,1,.3-1.3h0s-.1,1.5-.2,1.9h0a.37.37,0,0,1-.1.3h0a6.35,6.35,0,0,0,1.6,2.5h0a2.36,2.36,0,0,0,.9.6h0a12.75,12.75,0,0,1,1.9-.1h0a2.81,2.81,0,0,1,1.5.3h0c.1.1.1.2.2.4h0v.2h0s0-.2-.6-.4h0a8.62,8.62,0,0,0-2.3,0h0a4.33,4.33,0,0,0,2.7.7h0c.1,0,.2-.2.2-.2h0a2.27,2.27,0,0,0-.1.4h0c-.1.1-.2.2-.3.2h0a5.88,5.88,0,0,1-3.4-.9h0a29.92,29.92,0,0,0-4.3,1h0c-1.3,2.2-2.2,3.2-3,2.8h0l-.3-.1c-.1-.1-.1-.2-.1-.4h0a3.74,3.74,0,0,1,1.7-1.8h0a6.12,6.12,0,0,1,.6-.4h0l-.5.5h0a3.76,3.76,0,0,0-1.5,2h0c.7-.1,1.8-1.6,3.3-4.4m.4.2c-.2.5-.5.9-.7,1.3h0a25.94,25.94,0,0,1,3.7-1.1h0a1.76,1.76,0,0,1-.5-.4h0a7.42,7.42,0,0,1-1.6-2h0a5.7,5.7,0,0,1-.9,2.2" transform="translate(-297.9 -386.3)"/></svg>
