<svg id="Layer_1" data-name="Layer 1" xmlns="http://www.w3.org/2000/svg" viewBox="0 0 127.8 45.8"><defs><style>.cls-1{}</style></defs><title>Powered_by_PR</title><path class="cls-1" d="M281.5,375.5a11.79,11.79,0,0,1,2.2-.2,4.37,4.37,0,0,1,2.5.7,2.34,2.34,0,0,1,.8,1.8,2.49,2.49,0,0,1-.7,1.9,3.87,3.87,0,0,1-2.7,1,2.48,2.48,0,0,1-.9-.1v3.5h-1.1l-.1-8.6Zm1.1,4.2a2.48,2.48,0,0,0,.9.1c1.4,0,2.2-.7,2.2-1.9s-.8-1.7-2.1-1.7a3.11,3.11,0,0,0-1.1.1v3.4Z" transform="translate(-242.7 -374.8)"/><path class="cls-1" d="M293.7,380.9a3,3,0,0,1-3.1,3.3,2.94,2.94,0,0,1-3-3.2,3,3,0,0,1,3.1-3.3A2.94,2.94,0,0,1,293.7,380.9Zm-5,.1c0,1.4.8,2.4,1.9,2.4s1.9-1,1.9-2.4c0-1.1-.5-2.4-1.9-2.4S288.7,379.8,288.7,381Z" transform="translate(-242.7 -374.8)"/><path class="cls-1" d="M295.5,377.8l.8,3.2a19.44,19.44,0,0,1,.5,2h0c.1-.6.4-1.3.6-2l1-3.2h1l1,3.1c.2.8.4,1.4.6,2.1h0a19.44,19.44,0,0,1,.5-2l.9-3.2h1.1l-2,6.3h-1l-1-3c-.2-.7-.4-1.3-.6-2.1h0c-.2.8-.4,1.4-.6,2.1l-1,3h-1l-1.9-6.3Z" transform="translate(-242.7 -374.8)"/><path class="cls-1" d="M305.2,381.2a2,2,0,0,0,2.2,2.2,3.69,3.69,0,0,0,1.7-.3l.2.8a4.81,4.81,0,0,1-2.1.4,3,3,0,0,1-3.1-3.2c0-1.9,1.1-3.4,3-3.4,2.1,0,2.6,1.8,2.6,3v.5Zm3.3-.8a1.69,1.69,0,0,0-1.6-1.9,1.94,1.94,0,0,0-1.8,1.9Z" transform="translate(-242.7 -374.8)"/><path class="cls-1" d="M311,379.8a12.75,12.75,0,0,0-.1-2h1V379h.1a2,2,0,0,1,1.7-1.4h.3v1.1h-.4a1.54,1.54,0,0,0-1.5,1.5c0,.2-.1.3-.1.5v3.4h-1Z" transform="translate(-242.7 -374.8)"/><path class="cls-1" d="M315.8,381.2a2,2,0,0,0,2.2,2.2,3.69,3.69,0,0,0,1.7-.3l.2.8a4.81,4.81,0,0,1-2.1.4,3,3,0,0,1-3.1-3.2c0-1.9,1.1-3.4,3-3.4,2.1,0,2.6,1.8,2.6,3v.5Zm3.3-.8a1.69,1.69,0,0,0-1.6-1.9,1.94,1.94,0,0,0-1.8,1.9Z" transform="translate(-242.7 -374.8)"/><path class="cls-1" d="M327.1,374.9v7.6a7.59,7.59,0,0,0,.1,1.6h-1l-.1-1.1h0a2.32,2.32,0,0,1-2.1,1.2c-1.5,0-2.7-1.3-2.7-3.2,0-2.1,1.3-3.4,2.8-3.4a2.11,2.11,0,0,1,1.9,1h0v-3.8l1.1.1Zm-1.1,5.5a1.09,1.09,0,0,0-.1-.5,1.74,1.74,0,0,0-1.7-1.3c-1.2,0-1.9,1-1.9,2.4s.6,2.3,1.9,2.3a1.7,1.7,0,0,0,1.7-1.4c0-.2.1-.3.1-.5Z" transform="translate(-242.7 -374.8)"/><path class="cls-1" d="M331.7,384.1c0-.4.1-1.1.1-1.6v-7.6h1.1v4h0a2.32,2.32,0,0,1,2.1-1.2c1.6,0,2.7,1.3,2.7,3.2,0,2.3-1.4,3.4-2.8,3.4a2.35,2.35,0,0,1-2.1-1.2h0l-.1,1Zm1.2-2.5a.6.6,0,0,0,.1.4,1.71,1.71,0,0,0,1.7,1.3c1.2,0,1.9-1,1.9-2.4s-.6-2.3-1.9-2.3A1.7,1.7,0,0,0,333,380a4.33,4.33,0,0,0-.1.5Z" transform="translate(-242.7 -374.8)"/><path class="cls-1" d="M339.5,377.8l1.4,3.7c.1.4.3.9.4,1.3h0a6.47,6.47,0,0,1,.4-1.3l1.2-3.7h1.2l-1.7,4.5c-.8,2.2-1.4,3.3-2.2,3.9a2.53,2.53,0,0,1-1.4.7l-.3-1a2.66,2.66,0,0,0,1-.6,3.65,3.65,0,0,0,1-1.3.5.5,0,0,0,0-.6l-2.3-5.8h1.3Z" transform="translate(-242.7 -374.8)"/><path class="cls-1" d="M279.5,405.4v4.3H278V398.2h3.3a4.84,4.84,0,0,1,1.8.3,4,4,0,0,1,1.3.7,4.44,4.44,0,0,1,.8,1.1,3.34,3.34,0,0,1,.3,1.5,4,4,0,0,1-.3,1.5,2.84,2.84,0,0,1-.8,1.1,3.29,3.29,0,0,1-1.3.7,4.84,4.84,0,0,1-1.8.3Zm0-1.2h1.8a3.59,3.59,0,0,0,1.1-.2,2.1,2.1,0,0,0,1.3-1.3,3,3,0,0,0,.2-1,2.06,2.06,0,0,0-.7-1.7,2.81,2.81,0,0,0-2-.6h-1.8v4.8h.1Z" transform="translate(-242.7 -374.8)"/><path class="cls-1" d="M292.3,409.7h-.6a.37.37,0,0,1-.3-.1c-.1,0-.1-.1-.2-.3l-.2-.8a2.65,2.65,0,0,1-.6.5,2.09,2.09,0,0,1-.6.4,1.85,1.85,0,0,1-.7.2,2,2,0,0,1-.8.1,2.77,2.77,0,0,1-.9-.1,1.61,1.61,0,0,1-.7-.4,1.79,1.79,0,0,1-.5-.7,3,3,0,0,1-.2-1,1.61,1.61,0,0,1,.3-.9,2,2,0,0,1,.8-.8,11.64,11.64,0,0,1,1.5-.6,14,14,0,0,1,2.3-.2v-.6a2,2,0,0,0-.4-1.4,1.5,1.5,0,0,0-1.2-.5,2.77,2.77,0,0,0-.9.1,3.33,3.33,0,0,0-.6.3,1.38,1.38,0,0,0-.4.3c-.1.1-.2.1-.4.1s-.2,0-.2-.1l-.2-.2-.2-.5a4.51,4.51,0,0,1,1.4-1,4.67,4.67,0,0,1,1.7-.3,5,5,0,0,1,1.2.2,4.7,4.7,0,0,1,.9.6,3.13,3.13,0,0,1,.5,1,5.07,5.07,0,0,1,.2,1.3v5.4Zm-3.6-.9a1.7,1.7,0,0,0,.7-.1c.2-.1.4-.1.6-.2a2.19,2.19,0,0,0,.5-.3c.2-.1.3-.3.5-.5V406a7.59,7.59,0,0,0-1.6.1c-.4.1-.8.2-1.1.3a1,1,0,0,0-.6.5,1.42,1.42,0,0,0-.2.6,1.27,1.27,0,0,0,.1.6,1.38,1.38,0,0,0,.3.4.52.52,0,0,0,.4.2C288.3,408.8,288.5,408.8,288.7,408.8Z" transform="translate(-242.7 -374.8)"/><path class="cls-1" d="M296.1,412.1c0,.1-.1.2-.2.3a.37.37,0,0,1-.3.1h-1l1.4-3.2-3.3-7.7h1.2a.37.37,0,0,1,.3.1c.1.1.1.1.1.2l2.1,5.1c0,.1.1.2.1.4s.1.2.1.4c0-.1.1-.2.1-.4s.1-.2.1-.4l2-5.1a.22.22,0,0,1,.2-.2.31.31,0,0,1,.2-.1h1.1Z" transform="translate(-242.7 -374.8)"/><path class="cls-1" d="M301.5,409.7v-8.1h.8c.2,0,.3,0,.3.1a.37.37,0,0,1,.1.3l.1,1.3a3.45,3.45,0,0,1,1-1.3,2.39,2.39,0,0,1,1.4-.5,1.27,1.27,0,0,1,.6.1c.2.1.3.1.5.2l-.2,1.1a.22.22,0,0,1-.2.2.37.37,0,0,1-.3-.1,1.27,1.27,0,0,0-.6-.1,1.59,1.59,0,0,0-1.2.4,3.22,3.22,0,0,0-.8,1.3v5.2h-1.5v-.1Z" transform="translate(-242.7 -374.8)"/><path class="cls-1" d="M310.6,401.5a4.15,4.15,0,0,1,1.6.3,3.6,3.6,0,0,1,1.2.8,2.73,2.73,0,0,1,.7,1.3,5,5,0,0,1,0,3.4,4,4,0,0,1-.7,1.3,2.55,2.55,0,0,1-1.2.8,4.42,4.42,0,0,1-3.2,0,3.6,3.6,0,0,1-1.2-.8,5.67,5.67,0,0,1-.8-1.3,5,5,0,0,1,0-3.4,2.87,2.87,0,0,1,.8-1.3,2.55,2.55,0,0,1,1.2-.8A4.15,4.15,0,0,1,310.6,401.5Zm0,7.2a1.88,1.88,0,0,0,1.7-.8,3.71,3.71,0,0,0,.6-2.3,3.92,3.92,0,0,0-.6-2.3,2.14,2.14,0,0,0-1.7-.8,3,3,0,0,0-1,.2,1.34,1.34,0,0,0-.7.6,3,3,0,0,0-.4,1,8.5,8.5,0,0,0,0,2.6,3,3,0,0,0,.4,1,1.34,1.34,0,0,0,.7.6A1.64,1.64,0,0,0,310.6,408.7Z" transform="translate(-242.7 -374.8)"/><path class="cls-1" d="M317.3,397.9v11.8h-1.4V397.9Z" transform="translate(-242.7 -374.8)"/><path class="cls-1" d="M321,397.9v11.8h-1.4V397.9Z" transform="translate(-242.7 -374.8)"/><path class="cls-1" d="M328,405.2v4.5h-2.1V398.1h3.4a11.24,11.24,0,0,1,2,.2,4,4,0,0,1,1.3.7,2.26,2.26,0,0,1,.8,1.1,3.18,3.18,0,0,1,.2,1.4,3.59,3.59,0,0,1-.2,1.1,2.62,2.62,0,0,1-.5.9,2.7,2.7,0,0,1-.8.7,3.7,3.7,0,0,1-1.1.5,2.34,2.34,0,0,1,.7.7l2.8,4.3h-1.9a.9.9,0,0,1-.5-.1l-.3-.3-2.4-3.7-.3-.3a.75.75,0,0,0-.5-.1Zm0-1.6h1.3a3,3,0,0,0,1-.2,1.61,1.61,0,0,0,.7-.4,2.09,2.09,0,0,0,.4-.6,2,2,0,0,0,.1-.8,1.82,1.82,0,0,0-.6-1.4,2.86,2.86,0,0,0-1.7-.5H328Z" transform="translate(-242.7 -374.8)"/><path class="cls-1" d="M338.9,401.4a5.9,5.9,0,0,1,1.4.2,4.13,4.13,0,0,1,1.1.7,3.46,3.46,0,0,1,.7,1.2,4.15,4.15,0,0,1,.3,1.6v.4c0,.1,0,.2-.1.2a.1.1,0,0,1-.1.1h-5.1a3.3,3.3,0,0,0,.7,1.9,2,2,0,0,0,1.5.6,2,2,0,0,0,.8-.1,1.42,1.42,0,0,1,.6-.2c.2-.1.3-.2.4-.2a.6.6,0,0,1,.4-.1h.2a.1.1,0,0,1,.1.1l.6.7a1.87,1.87,0,0,1-.7.6,3,3,0,0,1-.8.4,2.92,2.92,0,0,1-.9.2c-.3,0-.6.1-.9.1a3.34,3.34,0,0,1-1.5-.3,3.6,3.6,0,0,1-1.2-.8,3.22,3.22,0,0,1-.8-1.4,5.41,5.41,0,0,1-.3-1.9,4.15,4.15,0,0,1,.3-1.6,3.53,3.53,0,0,1,.8-1.3,2.73,2.73,0,0,1,1.2-.9A3.09,3.09,0,0,1,338.9,401.4Zm0,1.4a1.73,1.73,0,0,0-1.3.5,2.59,2.59,0,0,0-.6,1.4h3.6a1.48,1.48,0,0,0-.1-.7l-.3-.6a1,1,0,0,0-.5-.4A1.2,1.2,0,0,0,338.9,402.8Z" transform="translate(-242.7 -374.8)"/><path class="cls-1" d="M345.6,397.8v11.9h-1.9V397.8Z" transform="translate(-242.7 -374.8)"/><path class="cls-1" d="M349.8,399.1a.9.9,0,0,1-.1.5c-.1.1-.2.3-.3.4a1.38,1.38,0,0,1-.4.3,1.3,1.3,0,0,1-1,0,1.77,1.77,0,0,1-.7-.7.75.75,0,0,1-.1-.5.9.9,0,0,1,.1-.5,1.77,1.77,0,0,1,.7-.7,1.3,1.3,0,0,1,1,0,1.77,1.77,0,0,1,.7.7A.9.9,0,0,1,349.8,399.1Zm-.3,2.4v8.2h-1.9v-8.2Z" transform="translate(-242.7 -374.8)"/><path class="cls-1" d="M354.7,401.4a5.9,5.9,0,0,1,1.4.2,4.13,4.13,0,0,1,1.1.7,3.46,3.46,0,0,1,.7,1.2,4.15,4.15,0,0,1,.3,1.6v.4c0,.1,0,.2-.1.2a.1.1,0,0,1-.1.1h-5.1a3.3,3.3,0,0,0,.7,1.9,2,2,0,0,0,1.5.6,2,2,0,0,0,.8-.1,1.42,1.42,0,0,1,.6-.2c.2-.1.3-.2.4-.2a.6.6,0,0,1,.4-.1h.2a.1.1,0,0,1,.1.1l.6.7a1.87,1.87,0,0,1-.7.6,3,3,0,0,1-.8.4,2.92,2.92,0,0,1-.9.2c-.3,0-.6.1-.9.1a3.34,3.34,0,0,1-1.5-.3,3.6,3.6,0,0,1-1.2-.8,3.22,3.22,0,0,1-.8-1.4,5.41,5.41,0,0,1-.3-1.9,4.15,4.15,0,0,1,.3-1.6,3.53,3.53,0,0,1,.8-1.3,2.73,2.73,0,0,1,1.2-.9A3.47,3.47,0,0,1,354.7,401.4Zm0,1.4a1.73,1.73,0,0,0-1.3.5,2.59,2.59,0,0,0-.6,1.4h3.6a1.48,1.48,0,0,0-.1-.7l-.3-.6a1,1,0,0,0-.5-.4A1.08,1.08,0,0,0,354.7,402.8Z" transform="translate(-242.7 -374.8)"/><path class="cls-1" d="M359.7,409.7V403l-.7-.1a.52.52,0,0,1-.4-.2.37.37,0,0,1-.1-.3v-.8h1.2V401a5.07,5.07,0,0,1,.2-1.3,2.07,2.07,0,0,1,.6-1,2.36,2.36,0,0,1,.9-.6,5,5,0,0,1,1.2-.2,3,3,0,0,1,1,.2v1c0,.2-.1.3-.2.3a4.33,4.33,0,0,1-.5.1,1.27,1.27,0,0,0-.6.1,1.33,1.33,0,0,0-.5.3,2.18,2.18,0,0,0-.3.5,2,2,0,0,0-.1.8v.5h2.1v1.4h-2v6.7l-1.8-.1Z" transform="translate(-242.7 -374.8)"/><path class="cls-1" d="M364.9,398.8a1.48,1.48,0,0,1,.1-.7c.1-.2.2-.5.3-.7s.3-.4.4-.6a2.09,2.09,0,0,1,.6-.4,4.87,4.87,0,0,1,.7-.3,2.5,2.5,0,0,1,1.4,0c.2.1.5.2.7.3s.4.3.6.4a2.09,2.09,0,0,1,.4.6,4.87,4.87,0,0,1,.3.7,1.7,1.7,0,0,1,.1.7,1.48,1.48,0,0,1-.1.7c-.1.2-.2.5-.3.7s-.3.4-.4.6a2.09,2.09,0,0,1-.6.4,4.87,4.87,0,0,1-.7.3,2.5,2.5,0,0,1-1.4,0c-.2-.1-.5-.2-.7-.3s-.4-.3-.6-.4a2.09,2.09,0,0,1-.4-.6,4.87,4.87,0,0,1-.3-.7A1.7,1.7,0,0,1,364.9,398.8Zm.5,0a2.92,2.92,0,0,0,.2.9,2.62,2.62,0,0,0,1.2,1.2,2.12,2.12,0,0,0,1.8,0,1.79,1.79,0,0,0,.7-.5,3,3,0,0,0,.5-.7,2.92,2.92,0,0,0,.2-.9,1.27,1.27,0,0,0-.1-.6c-.1-.2-.1-.4-.2-.6a1.76,1.76,0,0,0-.4-.5,2.18,2.18,0,0,0-.5-.4,1.42,1.42,0,0,0-.6-.2,1.85,1.85,0,0,0-1.2,0c-.2.1-.4.1-.6.2a1.76,1.76,0,0,0-.5.4,2.18,2.18,0,0,0-.4.5,1.42,1.42,0,0,0-.2.6C365.4,398.3,365.4,398.6,365.4,398.8Zm1.9.4v1.2h-.8V397h1.2a1.33,1.33,0,0,1,1,.3.91.91,0,0,1,.3.7,1.42,1.42,0,0,1-.2.6,1,1,0,0,1-.5.4.1.1,0,0,1,.1.1.35.35,0,0,1,.1.2l.7,1.2h-.8c-.1,0-.2,0-.2-.1l-.5-1-.1-.1h-.3Zm0-.5h.6c.1,0,.1-.1.2-.1a.35.35,0,0,0,.1-.2V398c0-.1,0-.1-.1-.1a.35.35,0,0,0-.2-.1h-.7v.9h.1Z" transform="translate(-242.7 -374.8)"/><path class="cls-1" d="M264.4,403.3a1.88,1.88,0,0,0,.2-.8,1.68,1.68,0,0,0-.6-1.4,3,3,0,0,0-1.8-.5h-1.5v3.8h1.4a3.75,3.75,0,0,0,1.1-.1,2,2,0,0,0,.8-.4A2.09,2.09,0,0,0,264.4,403.3Z" transform="translate(-242.7 -374.8)"/><path class="cls-1" d="M254.3,400.6h-1.6v4.2h1.6a3,3,0,0,0,1-.2,5.94,5.94,0,0,0,.8-.4,1.79,1.79,0,0,0,.5-.7,2.39,2.39,0,0,0,.2-.9,1.89,1.89,0,0,0-.6-1.5A3.09,3.09,0,0,0,254.3,400.6Z" transform="translate(-242.7 -374.8)"/><path class="cls-1" d="M258.4,389.2l-15.7,15.7,15.7,15.7,15.7-15.7Zm-.5,14.8a3.59,3.59,0,0,1-.7,1,3.46,3.46,0,0,1-1.2.7,4.14,4.14,0,0,1-1.6.2h-1.6v3.8h-1.4V399.5h3a8.81,8.81,0,0,1,1.7.2,3.37,3.37,0,0,1,1.2.6,3.59,3.59,0,0,1,.7,1,2.74,2.74,0,0,1,.2,1.3A4.88,4.88,0,0,1,257.9,404Zm7.2,5.4-2.6-3.6c-.1-.1-.2-.2-.3-.2s-.2-.1-.4-.1h-1v4.3h-1.4V399.6h2.9a8.81,8.81,0,0,1,1.7.2,2.28,2.28,0,0,1,1.2.6,2.18,2.18,0,0,1,.7.9,3.73,3.73,0,0,1,.2,1.2,3,3,0,0,1-.2,1,2.18,2.18,0,0,1-.5.8,2.41,2.41,0,0,1-.8.6,3.58,3.58,0,0,1-1.1.4,1.76,1.76,0,0,1,.5.4l3,4h-1.2C265.4,409.7,265.2,409.6,265.1,409.4Z" transform="translate(-242.7 -374.8)"/></svg>
