<svg id="Layer_1" data-name="Layer 1" xmlns="http://www.w3.org/2000/svg" viewBox="0 0 24.7 30.4"><defs><style>.cls-1{}</style></defs><title>Profile_icon</title><path class="cls-1" d="M316.9,402.8c-.9-1.4-5.2-3.8-5.9-4.1a3.56,3.56,0,0,1-.9-2.7,6.3,6.3,0,0,0,1.5-2.8h.2a2,2,0,0,0,1.1-2.4,1,1,0,0,0-.7-.9,48.23,48.23,0,0,1,.5-6.6,2.12,2.12,0,0,0-1.8-2.4h-.8a25.47,25.47,0,0,1-2.9-.2,10,10,0,0,0-1.6-.2c-2.9,0-3.7,1.6-3.9,2.2a4.41,4.41,0,0,0-1.2,1.7c-.8,1.6-.4,3.9,0,5.4a1.15,1.15,0,0,0-.6,1.1c0,.8.5,2.3,1.4,2.3h.2a7.22,7.22,0,0,0,1.4,2.6,4.2,4.2,0,0,1-.9,2.9c-.7.4-5,2.7-5.9,4.1-.2.3-1.6,2.3-2.1,7.5a.6.6,0,0,0,.1.4c.1.1.2.2.3.2h23.9c.1,0,.2-.1.3-.2s.1-.2.1-.4C318.6,405.1,317.2,403.1,316.9,402.8Zm-6.3-3.3h0l-2,1.9-1.3-2,2.5-1A2.1,2.1,0,0,0,310.6,399.5Zm-3.4,3.1,1,.9v6.3h-2.4v-6.3l1-.9a.35.35,0,0,0,.1-.2c0-.1,0-.1-.1-.2l-.9-.9,1.1-1.7,1.1,1.7-.8.9a.35.35,0,0,0-.1.2C307.1,402.5,307.1,402.6,307.2,402.6Zm-4.9-10.1a.32.32,0,0,0-.3-.3.6.6,0,0,0-.4.1.35.35,0,0,1-.2.1,2,2,0,0,1-.6-1.4c0-.3,0-.3.2-.3h.1a.76.76,0,0,0,.4-.2.6.6,0,0,0,.1-.4c-.3-1-1-3.6-.2-5.2h0a2.81,2.81,0,0,1,1-1.4c.1-.1.2-.2.2-.3s.4-1.7,3.1-1.7a7.57,7.57,0,0,1,1.5.1c.1,0,1.6.2,3.1.2h.7a1.2,1.2,0,0,1,1,1.4c0,.2-.5,4.6-.5,7.1a.76.76,0,0,0,.2.4c.2.1.3.2.4.2h0a.77.77,0,0,0,.1.3,1.43,1.43,0,0,1-.5,1.3h-.4c-.1.1-.2.2-.2.3a6.27,6.27,0,0,1-1.6,2.9.37.37,0,0,0-.1.3,5.62,5.62,0,0,0,.3,2l-2.7,1.1-3.3-1.1a6.87,6.87,0,0,0,.3-2.2.37.37,0,0,0-.1-.3A7.3,7.3,0,0,1,302.3,392.5Zm1.1,5.8,3.1,1.1-1.3,2-2.4-2.1A2.07,2.07,0,0,0,303.4,398.3Zm-6.5,5.1h0c.6-1,3.6-2.8,5.6-3.9l2.7,2.3.1.1h0c.1,0,.1,0,.2-.1l.1-.1.6.7-.9.9a.35.35,0,0,0-.1.2v6.4H295C295.6,405.1,296.9,403.4,296.9,403.4Zm11.7,6.5v-6.4c0-.1,0-.1-.1-.2l-.9-.9.6-.6h0c0,.1.1.1.2.1h0c.1,0,.1,0,.1-.1l2.4-2.1c1.9,1.1,4.7,2.8,5.2,3.6v.1s1.3,1.6,1.8,6.5Z" transform="translate(-294 -380.5)"/></svg>
