<svg id="Layer_1" data-name="Layer 1" xmlns="http://www.w3.org/2000/svg" viewBox="0 0 24.1 27.4"><defs><style>.cls-1{}</style></defs><title>W2_icon</title><path class="cls-1" d="M312.4,381.8H294.7v27.4h24.1v-21Zm.2,1.4,4.8,4.8h-4.8Zm-17.1,25.2V382.6h16.3v6.2H318v19.6H295.5Z" transform="translate(-294.7 -381.8)"/><path class="cls-1" d="M306.6,393.7l-1.9,6H304l-1.5-4.6v0l-1.5,4.6h-1l-1.9-6h.7c.1,0,.1,0,.2.1l.1.1,1.2,4.2c0,.1,0,.2.1.2a.37.37,0,0,0,.1.3.37.37,0,0,1,.1-.3c0-.1,0-.2.1-.2l1.4-4.2a.1.1,0,0,1,.1-.1c.1,0,.1-.1.2-.1h.2c.1,0,.1,0,.2.1l.1.1,1.4,4.2c0,.1,0,.2.1.2s0,.2.1.3v-.3c0-.1,0-.2.1-.2l1.2-4.2c0-.1,0-.1.1-.1a.35.35,0,0,1,.2-.1Z" transform="translate(-294.7 -381.8)"/><path class="cls-1" d="M310.9,399c.1,0,.1,0,.2.1a.35.35,0,0,1,.1.2v.5h-4v-.5c0-.1.1-.1.1-.2l1.9-1.9a1.76,1.76,0,0,0,.4-.5,2.18,2.18,0,0,0,.3-.5c.1-.2.2-.3.2-.5s.1-.3.1-.5a.9.9,0,0,0-.1-.5c-.1-.1-.1-.2-.2-.3s-.2-.2-.3-.2-.3-.1-.4-.1-.3,0-.4.1-.2.1-.3.2l-.3.3c-.1.1-.1.2-.1.4a.35.35,0,0,1-.1.2h-.2l-.4-.1a1.45,1.45,0,0,1,.2-.7,2.18,2.18,0,0,1,.4-.5c.2-.1.4-.3.6-.3s.5-.1.7-.1a1.48,1.48,0,0,1,.7.1l.6.3a1,1,0,0,1,.4.5,1.48,1.48,0,0,1,.1.7,1.27,1.27,0,0,1-.1.6,2.19,2.19,0,0,1-.3.5c-.1.1-.2.3-.4.5s-.3.3-.5.5l-1.6,1.6c.1,0,.2-.1.3-.1h2.4Z" transform="translate(-294.7 -381.8)"/><path class="cls-1" d="M314.7,396.1c0,.1-.1.1-.2.1h-.1a.35.35,0,0,0-.2-.1c-.1,0-.2-.1-.3-.1h-.7c-.1,0-.2.1-.3.1s-.1.1-.2.2a.35.35,0,0,1-.1.2.37.37,0,0,0,.1.3l.2.2c.1.1.2.1.4.1s.3.1.4.1a.76.76,0,0,1,.4.2c.1.1.2.1.4.2s.2.2.3.3a.6.6,0,0,1,.1.4.75.75,0,0,1-.1.5,1.38,1.38,0,0,1-.3.4,2.18,2.18,0,0,1-.5.3,1.48,1.48,0,0,1-.7.1,2,2,0,0,1-.8-.1,2.09,2.09,0,0,1-.6-.4l.2-.3a.1.1,0,0,1,.1-.1h.1c.1,0,.1,0,.2.1s.1.1.2.1.2.1.3.1.3.1.4.1a.6.6,0,0,0,.4-.1c.1-.1.2-.1.3-.2l.2-.2a.5.5,0,0,0,0-.6.77.77,0,0,0-.3-.2c-.1-.1-.2-.1-.4-.1s-.3-.1-.4-.1a.76.76,0,0,1-.4-.2c-.1-.1-.3-.1-.4-.2s-.2-.2-.2-.3a.75.75,0,0,1-.1-.5.9.9,0,0,1,.1-.5c.1-.1.2-.3.3-.4a2.18,2.18,0,0,1,.5-.3,1.27,1.27,0,0,1,.6-.1,2.2,2.2,0,0,1,.8.1,2.09,2.09,0,0,1,.6.4Z" transform="translate(-294.7 -381.8)"/></svg>
